<svg xmlns="http://www.w3.org/2000/svg" xmlns:xlink="http://www.w3.org/1999/xlink" width="500" zoomAndPan="magnify" viewBox="0 0 375 374.999991" height="500" preserveAspectRatio="xMidYMid meet" version="1.0"><defs><clipPath id="3e706a8bab"><path d="M 96.835938 101.710938 L 278.335938 101.710938 L 278.335938 216.460938 L 96.835938 216.460938 Z M 96.835938 101.710938 " clip-rule="nonzero"/></clipPath></defs><g clip-path="url(#3e706a8bab)"><path fill="#84caed" d="M 249.136719 139.792969 C 249.039062 139.792969 248.945312 139.796875 248.851562 139.796875 C 248.851562 139.792969 248.851562 139.792969 248.851562 139.792969 C 248.851562 123.828125 235.898438 110.886719 219.921875 110.886719 C 215.234375 110.886719 210.808594 112.003906 206.890625 113.976562 C 199 106.445312 188.304688 101.816406 176.53125 101.816406 C 161.839844 101.816406 148.839844 109.015625 140.855469 120.078125 C 138.238281 119.261719 135.457031 118.820312 132.570312 118.820312 C 117.222656 118.820312 104.777344 131.253906 104.777344 146.59375 C 104.777344 149.683594 105.28125 152.65625 106.214844 155.4375 C 100.515625 159.785156 96.835938 166.644531 96.835938 174.367188 C 96.835938 187.511719 107.5 198.171875 120.660156 198.171875 C 123.964844 198.171875 127.113281 197.496094 129.972656 196.28125 C 134.957031 208.078125 146.640625 216.359375 160.261719 216.359375 C 172.46875 216.359375 183.117188 209.707031 188.785156 199.835938 C 194.300781 206.511719 202.640625 210.765625 211.980469 210.765625 C 223.027344 210.765625 232.683594 204.808594 237.910156 195.9375 C 241.363281 197.375 245.15625 198.171875 249.136719 198.171875 C 265.269531 198.171875 278.347656 185.101562 278.347656 168.980469 C 278.347656 152.859375 265.269531 139.792969 249.136719 139.792969 " fill-opacity="1" fill-rule="nonzero"/></g><path fill="#4271af" d="M 213.171875 159.085938 C 213.171875 160.960938 211.648438 162.480469 209.773438 162.480469 C 207.898438 162.480469 206.375 160.960938 206.375 159.085938 C 206.375 157.210938 207.898438 155.691406 209.773438 155.691406 C 211.648438 155.691406 213.171875 157.210938 213.171875 159.085938 " fill-opacity="1" fill-rule="nonzero"/><path fill="#4271af" d="M 175.023438 159.085938 C 175.023438 160.960938 173.503906 162.480469 171.625 162.480469 C 169.75 162.480469 168.226562 160.960938 168.226562 159.085938 C 168.226562 157.210938 169.75 155.691406 171.625 155.691406 C 173.503906 155.691406 175.023438 157.210938 175.023438 159.085938 " fill-opacity="1" fill-rule="nonzero"/><path fill="#f69aa2" d="M 218.398438 171.199219 C 218.339844 174.351562 215.023438 176.84375 210.996094 176.769531 C 206.96875 176.691406 203.753906 174.070312 203.816406 170.917969 C 203.875 167.765625 207.1875 165.273438 211.214844 165.351562 C 215.242188 165.425781 218.460938 168.046875 218.398438 171.199219 " fill-opacity="1" fill-rule="nonzero"/><path fill="#f69aa2" d="M 178.917969 171.199219 C 178.859375 174.351562 175.542969 176.84375 171.515625 176.769531 C 167.488281 176.691406 164.273438 174.070312 164.332031 170.917969 C 164.394531 167.765625 167.710938 165.273438 171.734375 165.351562 C 175.765625 165.425781 178.980469 168.046875 178.917969 171.199219 " fill-opacity="1" fill-rule="nonzero"/><path fill="#4271af" d="M 192.519531 182.644531 C 188.78125 182.644531 186.71875 180.628906 185.613281 179.546875 C 185.445312 179.386719 185.304688 179.25 185.203125 179.164062 C 184.601562 178.65625 184.53125 177.761719 185.039062 177.160156 C 185.546875 176.5625 186.441406 176.488281 187.042969 176.996094 C 187.21875 177.144531 187.394531 177.316406 187.597656 177.515625 C 188.53125 178.425781 189.941406 179.800781 192.519531 179.800781 C 194.226562 179.800781 194.878906 179.148438 196.3125 177.714844 L 196.503906 177.523438 C 197.058594 176.96875 197.960938 176.96875 198.515625 177.523438 C 199.066406 178.078125 199.066406 178.976562 198.515625 179.53125 L 198.324219 179.722656 C 196.757812 181.289062 195.40625 182.644531 192.519531 182.644531 " fill-opacity="1" fill-rule="nonzero"/></svg>