<svg xmlns="http://www.w3.org/2000/svg" xmlns:xlink="http://www.w3.org/1999/xlink" width="500" zoomAndPan="magnify" viewBox="0 0 375 374.999991" height="500" preserveAspectRatio="xMidYMid meet" version="1.0"><defs><g/><clipPath id="4bd69bb38e"><path d="M 96.835938 101.710938 L 278.335938 101.710938 L 278.335938 216.460938 L 96.835938 216.460938 Z M 96.835938 101.710938 " clip-rule="nonzero"/></clipPath></defs><g clip-path="url(#4bd69bb38e)"><path fill="#84caed" d="M 249.136719 139.792969 C 249.039062 139.792969 248.945312 139.796875 248.851562 139.796875 C 248.851562 139.792969 248.851562 139.792969 248.851562 139.792969 C 248.851562 123.828125 235.898438 110.886719 219.921875 110.886719 C 215.234375 110.886719 210.808594 112.003906 206.890625 113.976562 C 199 106.445312 188.304688 101.816406 176.53125 101.816406 C 161.839844 101.816406 148.839844 109.015625 140.855469 120.078125 C 138.238281 119.261719 135.457031 118.820312 132.570312 118.820312 C 117.222656 118.820312 104.777344 131.253906 104.777344 146.59375 C 104.777344 149.683594 105.28125 152.65625 106.214844 155.4375 C 100.515625 159.785156 96.835938 166.644531 96.835938 174.367188 C 96.835938 187.511719 107.5 198.171875 120.660156 198.171875 C 123.964844 198.171875 127.113281 197.496094 129.972656 196.28125 C 134.957031 208.078125 146.640625 216.359375 160.261719 216.359375 C 172.46875 216.359375 183.117188 209.707031 188.785156 199.835938 C 194.300781 206.511719 202.640625 210.765625 211.980469 210.765625 C 223.027344 210.765625 232.683594 204.808594 237.910156 195.9375 C 241.363281 197.375 245.15625 198.171875 249.136719 198.171875 C 265.269531 198.171875 278.347656 185.101562 278.347656 168.980469 C 278.347656 152.859375 265.269531 139.792969 249.136719 139.792969 " fill-opacity="1" fill-rule="nonzero"/></g><path fill="#4271af" d="M 213.171875 159.085938 C 213.171875 160.960938 211.648438 162.480469 209.773438 162.480469 C 207.898438 162.480469 206.375 160.960938 206.375 159.085938 C 206.375 157.210938 207.898438 155.691406 209.773438 155.691406 C 211.648438 155.691406 213.171875 157.210938 213.171875 159.085938 " fill-opacity="1" fill-rule="nonzero"/><path fill="#4271af" d="M 175.023438 159.085938 C 175.023438 160.960938 173.503906 162.480469 171.625 162.480469 C 169.75 162.480469 168.226562 160.960938 168.226562 159.085938 C 168.226562 157.210938 169.75 155.691406 171.625 155.691406 C 173.503906 155.691406 175.023438 157.210938 175.023438 159.085938 " fill-opacity="1" fill-rule="nonzero"/><path fill="#f69aa2" d="M 218.398438 171.199219 C 218.339844 174.351562 215.023438 176.84375 210.996094 176.769531 C 206.96875 176.691406 203.753906 174.070312 203.816406 170.917969 C 203.875 167.765625 207.1875 165.273438 211.214844 165.351562 C 215.242188 165.425781 218.460938 168.046875 218.398438 171.199219 " fill-opacity="1" fill-rule="nonzero"/><path fill="#f69aa2" d="M 178.917969 171.199219 C 178.859375 174.351562 175.542969 176.84375 171.515625 176.769531 C 167.488281 176.691406 164.273438 174.070312 164.332031 170.917969 C 164.394531 167.765625 167.710938 165.273438 171.734375 165.351562 C 175.765625 165.425781 178.980469 168.046875 178.917969 171.199219 " fill-opacity="1" fill-rule="nonzero"/><path fill="#4271af" d="M 192.519531 182.644531 C 188.78125 182.644531 186.71875 180.628906 185.613281 179.546875 C 185.445312 179.386719 185.304688 179.25 185.203125 179.164062 C 184.601562 178.65625 184.53125 177.761719 185.039062 177.160156 C 185.546875 176.5625 186.441406 176.488281 187.042969 176.996094 C 187.21875 177.144531 187.394531 177.316406 187.597656 177.515625 C 188.53125 178.425781 189.941406 179.800781 192.519531 179.800781 C 194.226562 179.800781 194.878906 179.148438 196.3125 177.714844 L 196.503906 177.523438 C 197.058594 176.96875 197.960938 176.96875 198.515625 177.523438 C 199.066406 178.078125 199.066406 178.976562 198.515625 179.53125 L 198.324219 179.722656 C 196.757812 181.289062 195.40625 182.644531 192.519531 182.644531 " fill-opacity="1" fill-rule="nonzero"/><g fill="#ff9441" fill-opacity="1"><g transform="translate(107.053349, 236.936911)"><g><path d="M 3.46875 -1.734375 C 3.46875 -4.160156 3.453125 -6.550781 3.421875 -8.90625 C 3.390625 -11.269531 3.375 -13.660156 3.375 -16.078125 L 3.375 -19.59375 C 3.375 -19.882812 3.445312 -20.171875 3.59375 -20.453125 C 3.75 -20.742188 3.960938 -20.960938 4.234375 -21.109375 C 4.421875 -21.210938 4.664062 -21.296875 4.96875 -21.359375 C 5.28125 -21.421875 5.601562 -21.46875 5.9375 -21.5 C 6.269531 -21.53125 6.597656 -21.550781 6.921875 -21.5625 C 7.253906 -21.570312 7.523438 -21.578125 7.734375 -21.578125 C 8.960938 -21.578125 10.195312 -21.453125 11.4375 -21.203125 C 12.675781 -20.953125 13.863281 -20.570312 15 -20.0625 C 15.863281 -19.664062 16.628906 -19.144531 17.296875 -18.5 C 17.960938 -17.851562 18.515625 -17.125 18.953125 -16.3125 C 19.398438 -15.507812 19.734375 -14.65625 19.953125 -13.75 C 20.171875 -12.84375 20.28125 -11.9375 20.28125 -11.03125 C 20.28125 -10.164062 20.203125 -9.316406 20.046875 -8.484375 C 19.890625 -7.648438 19.628906 -6.84375 19.265625 -6.0625 C 18.765625 -4.945312 18.203125 -4.039062 17.578125 -3.34375 C 16.960938 -2.65625 16.265625 -2.097656 15.484375 -1.671875 C 14.703125 -1.253906 13.835938 -0.941406 12.890625 -0.734375 C 11.941406 -0.535156 10.890625 -0.363281 9.734375 -0.21875 C 9.117188 -0.132812 8.492188 -0.078125 7.859375 -0.046875 C 7.234375 -0.015625 6.613281 0 6 0 C 5.707031 0 5.410156 -0.0234375 5.109375 -0.078125 C 4.816406 -0.128906 4.550781 -0.222656 4.3125 -0.359375 C 4.070312 -0.492188 3.867188 -0.671875 3.703125 -0.890625 C 3.546875 -1.117188 3.46875 -1.398438 3.46875 -1.734375 Z M 6.828125 -3.25 L 6.890625 -3.25 C 7.265625 -3.269531 7.78125 -3.304688 8.4375 -3.359375 C 9.09375 -3.410156 9.769531 -3.488281 10.46875 -3.59375 C 11.175781 -3.707031 11.84375 -3.835938 12.46875 -3.984375 C 13.101562 -4.128906 13.570312 -4.296875 13.875 -4.484375 C 14.925781 -5.242188 15.695312 -6.222656 16.1875 -7.421875 C 16.6875 -8.617188 16.9375 -9.832031 16.9375 -11.0625 C 16.9375 -11.925781 16.769531 -12.832031 16.4375 -13.78125 C 16.113281 -14.726562 15.632812 -15.515625 15 -16.140625 C 14.625 -16.523438 14.128906 -16.859375 13.515625 -17.140625 C 12.910156 -17.421875 12.265625 -17.644531 11.578125 -17.8125 C 10.890625 -17.988281 10.207031 -18.117188 9.53125 -18.203125 C 8.863281 -18.285156 8.265625 -18.328125 7.734375 -18.328125 C 7.566406 -18.328125 7.414062 -18.328125 7.28125 -18.328125 C 7.144531 -18.328125 6.992188 -18.316406 6.828125 -18.296875 L 6.765625 -18.296875 L 6.765625 -15.484375 C 6.765625 -13.441406 6.773438 -11.410156 6.796875 -9.390625 C 6.816406 -7.378906 6.828125 -5.351562 6.828125 -3.3125 Z M 6.828125 -3.25 "/></g></g></g><g fill="#ff8da5" fill-opacity="1"><g transform="translate(127.188994, 236.936911)"><g><path d="M 5.015625 -14.71875 L 5.09375 -14.75 C 6.019531 -15.28125 6.96875 -15.546875 7.9375 -15.546875 C 8.726562 -15.546875 9.515625 -15.382812 10.296875 -15.0625 C 11.078125 -14.75 11.773438 -14.320312 12.390625 -13.78125 C 12.554688 -13.601562 12.675781 -13.429688 12.75 -13.265625 C 12.820312 -13.097656 12.859375 -12.898438 12.859375 -12.671875 C 12.859375 -12.203125 12.695312 -11.820312 12.375 -11.53125 C 12.0625 -11.238281 11.675781 -11.09375 11.21875 -11.09375 C 10.96875 -11.09375 10.710938 -11.15625 10.453125 -11.28125 C 10.328125 -11.34375 10.207031 -11.410156 10.09375 -11.484375 C 9.976562 -11.554688 9.859375 -11.632812 9.734375 -11.71875 C 9.484375 -11.882812 9.21875 -12.035156 8.9375 -12.171875 C 8.664062 -12.316406 8.351562 -12.390625 8 -12.390625 C 7.65625 -12.390625 7.335938 -12.300781 7.046875 -12.125 C 6.691406 -11.9375 6.40625 -11.679688 6.1875 -11.359375 C 5.976562 -11.035156 5.816406 -10.679688 5.703125 -10.296875 C 5.585938 -9.921875 5.515625 -9.535156 5.484375 -9.140625 C 5.453125 -8.753906 5.4375 -8.382812 5.4375 -8.03125 C 5.4375 -7.5 5.441406 -6.96875 5.453125 -6.4375 C 5.460938 -5.914062 5.476562 -5.390625 5.5 -4.859375 C 5.519531 -4.316406 5.546875 -3.769531 5.578125 -3.21875 C 5.609375 -2.675781 5.625 -2.128906 5.625 -1.578125 C 5.625 -1.140625 5.460938 -0.765625 5.140625 -0.453125 C 4.828125 -0.148438 4.453125 0 4.015625 0 C 3.585938 0 3.222656 -0.132812 2.921875 -0.40625 C 2.617188 -0.6875 2.445312 -1.023438 2.40625 -1.421875 C 2.257812 -2.742188 2.175781 -4.054688 2.15625 -5.359375 C 2.144531 -6.671875 2.140625 -7.988281 2.140625 -9.3125 C 2.140625 -10.09375 2.125 -10.863281 2.09375 -11.625 C 2.0625 -12.382812 2.023438 -13.144531 1.984375 -13.90625 L 1.984375 -14.03125 C 1.984375 -14.46875 2.128906 -14.835938 2.421875 -15.140625 C 2.722656 -15.453125 3.101562 -15.609375 3.5625 -15.609375 C 4.21875 -15.609375 4.691406 -15.332031 4.984375 -14.78125 Z M 5.015625 -14.71875 "/></g></g></g><g fill="#ff6e14" fill-opacity="1"><g transform="translate(143.48345, 236.936911)"><g><path d="M 4.984375 -6.796875 L 4.984375 -6.734375 C 5.054688 -6.304688 5.179688 -5.867188 5.359375 -5.421875 C 5.535156 -4.984375 5.757812 -4.59375 6.03125 -4.25 C 6.300781 -3.90625 6.628906 -3.617188 7.015625 -3.390625 C 7.410156 -3.171875 7.863281 -3.0625 8.375 -3.0625 C 8.9375 -3.0625 9.453125 -3.15625 9.921875 -3.34375 C 10.398438 -3.539062 10.84375 -3.753906 11.25 -3.984375 C 11.457031 -4.109375 11.65625 -4.222656 11.84375 -4.328125 C 12.03125 -4.429688 12.210938 -4.523438 12.390625 -4.609375 C 12.679688 -4.816406 12.960938 -4.921875 13.234375 -4.921875 C 13.703125 -4.921875 14.09375 -4.753906 14.40625 -4.421875 C 14.71875 -4.085938 14.875 -3.695312 14.875 -3.25 C 14.875 -2.707031 14.65625 -2.265625 14.21875 -1.921875 C 13.84375 -1.628906 13.421875 -1.359375 12.953125 -1.109375 C 12.492188 -0.859375 12.003906 -0.632812 11.484375 -0.4375 C 10.960938 -0.25 10.441406 -0.101562 9.921875 0 C 9.410156 0.101562 8.925781 0.15625 8.46875 0.15625 C 7.351562 0.15625 6.363281 -0.0703125 5.5 -0.53125 C 4.632812 -1 3.910156 -1.601562 3.328125 -2.34375 C 2.753906 -3.09375 2.3125 -3.953125 2 -4.921875 C 1.695312 -5.890625 1.546875 -6.882812 1.546875 -7.90625 C 1.546875 -8.914062 1.707031 -9.890625 2.03125 -10.828125 C 2.363281 -11.765625 2.835938 -12.59375 3.453125 -13.3125 C 4.078125 -14.039062 4.828125 -14.617188 5.703125 -15.046875 C 6.578125 -15.484375 7.5625 -15.703125 8.65625 -15.703125 C 10.175781 -15.703125 11.460938 -15.320312 12.515625 -14.5625 C 13.566406 -13.800781 14.332031 -12.726562 14.8125 -11.34375 C 14.914062 -11.09375 14.992188 -10.835938 15.046875 -10.578125 C 15.109375 -10.328125 15.140625 -10.054688 15.140625 -9.765625 C 15.140625 -9.066406 14.972656 -8.53125 14.640625 -8.15625 C 14.316406 -7.789062 13.898438 -7.523438 13.390625 -7.359375 C 12.929688 -7.191406 12.375 -7.085938 11.71875 -7.046875 C 11.425781 -7.003906 11.132812 -6.984375 10.84375 -6.984375 C 10.5625 -6.984375 10.285156 -6.984375 10.015625 -6.984375 C 9.503906 -6.960938 9 -6.957031 8.5 -6.96875 C 8.007812 -6.976562 7.515625 -6.972656 7.015625 -6.953125 C 6.679688 -6.929688 6.351562 -6.90625 6.03125 -6.875 C 5.71875 -6.84375 5.394531 -6.816406 5.0625 -6.796875 Z M 5.375 -10.171875 L 6.09375 -10.171875 C 6.644531 -10.171875 7.179688 -10.179688 7.703125 -10.203125 C 8.234375 -10.222656 8.769531 -10.234375 9.3125 -10.234375 C 10.09375 -10.234375 10.84375 -10.265625 11.5625 -10.328125 L 11.65625 -10.328125 L 11.625 -10.421875 C 11.582031 -10.503906 11.554688 -10.578125 11.546875 -10.640625 C 11.535156 -10.703125 11.507812 -10.769531 11.46875 -10.84375 C 11.445312 -10.96875 11.375 -11.101562 11.25 -11.25 C 10.9375 -11.625 10.546875 -11.914062 10.078125 -12.125 C 9.617188 -12.34375 9.132812 -12.453125 8.625 -12.453125 C 7.820312 -12.453125 7.164062 -12.253906 6.65625 -11.859375 C 6.15625 -11.472656 5.738281 -10.941406 5.40625 -10.265625 Z M 5.375 -10.171875 "/></g></g></g><g fill="#50a23c" fill-opacity="1"><g transform="translate(158.653427, 236.936911)"><g><path d="M 12.703125 -2.5625 C 12.085938 -1.78125 11.390625 -1.132812 10.609375 -0.625 C 9.835938 -0.125 8.9375 0.125 7.90625 0.125 C 7 0.125 6.222656 -0.0664062 5.578125 -0.453125 C 4.929688 -0.847656 4.394531 -1.359375 3.96875 -1.984375 C 3.550781 -2.617188 3.242188 -3.328125 3.046875 -4.109375 C 2.847656 -4.890625 2.75 -5.664062 2.75 -6.4375 C 2.75 -7.5625 2.898438 -8.6875 3.203125 -9.8125 C 3.515625 -10.9375 3.976562 -11.953125 4.59375 -12.859375 C 5.21875 -13.765625 6.003906 -14.5 6.953125 -15.0625 C 7.898438 -15.632812 9.015625 -15.921875 10.296875 -15.921875 C 11.835938 -15.921875 13.066406 -15.492188 13.984375 -14.640625 C 14.898438 -13.785156 15.359375 -12.601562 15.359375 -11.09375 C 15.359375 -10.375 15.300781 -9.660156 15.1875 -8.953125 C 15.082031 -8.253906 15.03125 -7.546875 15.03125 -6.828125 C 15.03125 -6.503906 15.050781 -6.164062 15.09375 -5.8125 C 15.144531 -5.457031 15.222656 -5.101562 15.328125 -4.75 C 15.429688 -4.40625 15.585938 -4.09375 15.796875 -3.8125 C 16.003906 -3.539062 16.28125 -3.332031 16.625 -3.1875 C 16.726562 -3.144531 16.816406 -3.117188 16.890625 -3.109375 C 16.960938 -3.097656 17.039062 -3.082031 17.125 -3.0625 C 17.207031 -3.0625 17.28125 -3.054688 17.34375 -3.046875 C 17.40625 -3.035156 17.476562 -3.03125 17.5625 -3.03125 C 17.6875 -3.007812 17.820312 -2.976562 17.96875 -2.9375 C 18.125 -2.894531 18.304688 -2.789062 18.515625 -2.625 C 18.847656 -2.332031 19.015625 -1.984375 19.015625 -1.578125 C 19.015625 -1.097656 18.796875 -0.71875 18.359375 -0.4375 C 17.929688 -0.164062 17.488281 -0.03125 17.03125 -0.03125 C 16.125 -0.03125 15.316406 -0.269531 14.609375 -0.75 C 13.898438 -1.238281 13.304688 -1.851562 12.828125 -2.59375 L 12.703125 -2.78125 Z M 7.515625 -3.1875 L 7.796875 -3.1875 C 8.578125 -3.1875 9.222656 -3.503906 9.734375 -4.140625 C 10.253906 -4.773438 10.664062 -5.523438 10.96875 -6.390625 C 11.28125 -7.265625 11.5 -8.15625 11.625 -9.0625 C 11.75 -9.96875 11.8125 -10.695312 11.8125 -11.25 C 11.8125 -11.75 11.613281 -12.09375 11.21875 -12.28125 C 10.832031 -12.476562 10.429688 -12.578125 10.015625 -12.578125 C 9.253906 -12.578125 8.613281 -12.375 8.09375 -11.96875 C 7.582031 -11.570312 7.15625 -11.070312 6.8125 -10.46875 C 6.476562 -9.875 6.238281 -9.226562 6.09375 -8.53125 C 5.945312 -7.832031 5.875 -7.191406 5.875 -6.609375 C 5.875 -6.367188 5.894531 -6.085938 5.9375 -5.765625 C 5.976562 -5.441406 6.050781 -5.113281 6.15625 -4.78125 C 6.257812 -4.457031 6.394531 -4.15625 6.5625 -3.875 C 6.738281 -3.601562 6.953125 -3.40625 7.203125 -3.28125 C 7.242188 -3.238281 7.289062 -3.21875 7.34375 -3.21875 C 7.394531 -3.21875 7.453125 -3.207031 7.515625 -3.1875 Z M 7.515625 -3.1875 "/></g></g></g><g fill="#eca719" fill-opacity="1"><g transform="translate(172.510428, 236.936911)"><g><path d="M 5.5 -14.9375 L 5.5625 -14.96875 C 6.425781 -15.664062 7.414062 -16.015625 8.53125 -16.015625 C 9.414062 -16.015625 10.144531 -15.785156 10.71875 -15.328125 C 11.300781 -14.878906 11.804688 -14.285156 12.234375 -13.546875 L 12.296875 -13.453125 L 12.359375 -13.546875 C 12.898438 -14.222656 13.546875 -14.785156 14.296875 -15.234375 C 15.046875 -15.691406 15.863281 -15.921875 16.75 -15.921875 C 17.332031 -15.921875 17.890625 -15.804688 18.421875 -15.578125 C 18.960938 -15.347656 19.445312 -15.03125 19.875 -14.625 C 20.550781 -14 21.066406 -13.242188 21.421875 -12.359375 C 21.773438 -11.472656 22.035156 -10.53125 22.203125 -9.53125 C 22.378906 -8.53125 22.484375 -7.519531 22.515625 -6.5 C 22.546875 -5.488281 22.5625 -4.554688 22.5625 -3.703125 C 22.5625 -3.460938 22.566406 -3.21875 22.578125 -2.96875 C 22.585938 -2.71875 22.59375 -2.476562 22.59375 -2.25 C 22.59375 -1.675781 22.46875 -1.15625 22.21875 -0.6875 C 21.976562 -0.226562 21.535156 0 20.890625 0 C 20.378906 0 20.015625 -0.125 19.796875 -0.375 C 19.578125 -0.632812 19.410156 -0.953125 19.296875 -1.328125 C 19.234375 -1.703125 19.203125 -2.101562 19.203125 -2.53125 C 19.222656 -2.757812 19.234375 -2.96875 19.234375 -3.15625 C 19.234375 -3.34375 19.234375 -3.523438 19.234375 -3.703125 C 19.234375 -3.910156 19.234375 -4.195312 19.234375 -4.5625 C 19.234375 -4.9375 19.226562 -5.351562 19.21875 -5.8125 C 19.207031 -6.28125 19.179688 -6.765625 19.140625 -7.265625 C 19.097656 -7.773438 19.035156 -8.28125 18.953125 -8.78125 C 18.867188 -9.289062 18.769531 -9.773438 18.65625 -10.234375 C 18.539062 -10.703125 18.382812 -11.113281 18.1875 -11.46875 C 18 -11.820312 17.785156 -12.101562 17.546875 -12.3125 C 17.304688 -12.53125 17.019531 -12.640625 16.6875 -12.640625 C 16.257812 -12.640625 15.894531 -12.488281 15.59375 -12.1875 C 15.289062 -11.894531 15.03125 -11.601562 14.8125 -11.3125 C 14.332031 -10.570312 14.003906 -9.796875 13.828125 -8.984375 C 13.660156 -8.171875 13.578125 -7.335938 13.578125 -6.484375 C 13.578125 -5.929688 13.585938 -5.390625 13.609375 -4.859375 C 13.640625 -4.335938 13.65625 -3.800781 13.65625 -3.25 C 13.65625 -2.9375 13.632812 -2.601562 13.59375 -2.25 C 13.5625 -1.90625 13.488281 -1.59375 13.375 -1.3125 C 13.257812 -1.03125 13.085938 -0.789062 12.859375 -0.59375 C 12.628906 -0.40625 12.300781 -0.3125 11.875 -0.3125 C 11.1875 -0.3125 10.703125 -0.597656 10.421875 -1.171875 C 10.296875 -1.421875 10.210938 -1.820312 10.171875 -2.375 C 10.128906 -2.9375 10.109375 -3.554688 10.109375 -4.234375 C 10.109375 -4.910156 10.117188 -5.554688 10.140625 -6.171875 C 10.160156 -6.796875 10.171875 -7.285156 10.171875 -7.640625 C 10.171875 -7.984375 10.15625 -8.441406 10.125 -9.015625 C 10.09375 -9.597656 10.003906 -10.164062 9.859375 -10.71875 C 9.710938 -11.28125 9.488281 -11.765625 9.1875 -12.171875 C 8.894531 -12.585938 8.488281 -12.796875 7.96875 -12.796875 C 7.601562 -12.796875 7.296875 -12.65625 7.046875 -12.375 C 6.796875 -12.101562 6.582031 -11.753906 6.40625 -11.328125 C 6.238281 -10.910156 6.109375 -10.4375 6.015625 -9.90625 C 5.921875 -9.382812 5.851562 -8.867188 5.8125 -8.359375 C 5.769531 -7.859375 5.742188 -7.394531 5.734375 -6.96875 C 5.722656 -6.550781 5.71875 -6.226562 5.71875 -6 C 5.71875 -5.457031 5.726562 -4.898438 5.75 -4.328125 C 5.769531 -3.753906 5.78125 -3.195312 5.78125 -2.65625 C 5.78125 -2.613281 5.757812 -2.550781 5.71875 -2.46875 C 5.71875 -2.40625 5.707031 -2.363281 5.6875 -2.34375 C 5.6875 -2.320312 5.679688 -2.304688 5.671875 -2.296875 C 5.660156 -2.285156 5.65625 -2.257812 5.65625 -2.21875 C 5.65625 -2.164062 5.648438 -2.117188 5.640625 -2.078125 C 5.628906 -2.035156 5.625 -1.992188 5.625 -1.953125 C 5.625 -1.910156 5.617188 -1.875 5.609375 -1.84375 C 5.597656 -1.8125 5.59375 -1.773438 5.59375 -1.734375 C 5.363281 -0.972656 4.835938 -0.59375 4.015625 -0.59375 C 3.566406 -0.59375 3.191406 -0.734375 2.890625 -1.015625 C 2.585938 -1.304688 2.414062 -1.660156 2.375 -2.078125 C 2.332031 -2.628906 2.304688 -3.171875 2.296875 -3.703125 C 2.285156 -4.242188 2.28125 -4.789062 2.28125 -5.34375 C 2.28125 -6.351562 2.304688 -7.359375 2.359375 -8.359375 C 2.410156 -9.359375 2.4375 -10.363281 2.4375 -11.375 C 2.4375 -11.851562 2.425781 -12.320312 2.40625 -12.78125 C 2.382812 -13.25 2.375 -13.726562 2.375 -14.21875 C 2.375 -14.675781 2.523438 -15.066406 2.828125 -15.390625 C 3.128906 -15.722656 3.523438 -15.890625 4.015625 -15.890625 C 4.679688 -15.890625 5.164062 -15.59375 5.46875 -15 Z M 5.5 -14.9375 "/></g></g></g><g fill="#05a552" fill-opacity="1"><g transform="translate(202.991198, 236.936911)"><g><path d="M 7.828125 -18.015625 L 7.765625 -18.015625 C 7.390625 -18.035156 7.007812 -18.046875 6.625 -18.046875 C 6.25 -18.046875 5.875 -18.046875 5.5 -18.046875 C 5.207031 -18.046875 4.898438 -18.035156 4.578125 -18.015625 C 4.265625 -17.992188 3.960938 -17.984375 3.671875 -17.984375 C 3.203125 -17.984375 2.796875 -18.148438 2.453125 -18.484375 C 2.117188 -18.816406 1.953125 -19.207031 1.953125 -19.65625 C 1.953125 -20.132812 2.101562 -20.523438 2.40625 -20.828125 C 2.71875 -21.140625 3.117188 -21.316406 3.609375 -21.359375 C 4.109375 -21.398438 4.617188 -21.425781 5.140625 -21.4375 C 5.671875 -21.445312 6.191406 -21.453125 6.703125 -21.453125 C 7.773438 -21.453125 8.847656 -21.4375 9.921875 -21.40625 C 10.992188 -21.375 12.078125 -21.359375 13.171875 -21.359375 C 14.265625 -21.359375 15.347656 -21.390625 16.421875 -21.453125 C 16.679688 -21.472656 16.9375 -21.492188 17.1875 -21.515625 C 17.4375 -21.535156 17.675781 -21.554688 17.90625 -21.578125 L 18.109375 -21.578125 C 18.585938 -21.578125 18.992188 -21.414062 19.328125 -21.09375 C 19.671875 -20.78125 19.84375 -20.382812 19.84375 -19.90625 C 19.84375 -19.675781 19.785156 -19.425781 19.671875 -19.15625 C 19.554688 -18.894531 19.398438 -18.691406 19.203125 -18.546875 C 18.953125 -18.335938 18.628906 -18.210938 18.234375 -18.171875 C 17.867188 -18.128906 17.519531 -18.109375 17.1875 -18.109375 C 16.851562 -18.109375 16.503906 -18.097656 16.140625 -18.078125 C 15.359375 -18.035156 14.578125 -18 13.796875 -17.96875 C 13.023438 -17.945312 12.238281 -17.9375 11.4375 -17.9375 L 11.375 -17.9375 L 11.375 -17.875 C 11.375 -15.164062 11.394531 -12.472656 11.4375 -9.796875 C 11.476562 -7.117188 11.5 -4.421875 11.5 -1.703125 C 11.5 -1.222656 11.320312 -0.816406 10.96875 -0.484375 C 10.625 -0.160156 10.210938 0 9.734375 0 C 8.992188 0 8.488281 -0.335938 8.21875 -1.015625 C 8.15625 -1.140625 8.113281 -1.257812 8.09375 -1.375 C 8.070312 -1.488281 8.050781 -1.609375 8.03125 -1.734375 C 8.007812 -1.859375 8 -1.984375 8 -2.109375 C 8 -2.242188 8 -2.375 8 -2.5 C 8 -3.820312 8 -5.132812 8 -6.4375 C 8 -7.75 7.976562 -9.066406 7.9375 -10.390625 C 7.914062 -11.660156 7.890625 -12.921875 7.859375 -14.171875 C 7.835938 -15.421875 7.828125 -16.675781 7.828125 -17.9375 Z M 7.828125 -18.015625 "/></g></g></g><g fill="#ff8da5" fill-opacity="1"><g transform="translate(215.817281, 236.936911)"><g><path d="M 12.703125 -2.5625 C 12.085938 -1.78125 11.390625 -1.132812 10.609375 -0.625 C 9.835938 -0.125 8.9375 0.125 7.90625 0.125 C 7 0.125 6.222656 -0.0664062 5.578125 -0.453125 C 4.929688 -0.847656 4.394531 -1.359375 3.96875 -1.984375 C 3.550781 -2.617188 3.242188 -3.328125 3.046875 -4.109375 C 2.847656 -4.890625 2.75 -5.664062 2.75 -6.4375 C 2.75 -7.5625 2.898438 -8.6875 3.203125 -9.8125 C 3.515625 -10.9375 3.976562 -11.953125 4.59375 -12.859375 C 5.21875 -13.765625 6.003906 -14.5 6.953125 -15.0625 C 7.898438 -15.632812 9.015625 -15.921875 10.296875 -15.921875 C 11.835938 -15.921875 13.066406 -15.492188 13.984375 -14.640625 C 14.898438 -13.785156 15.359375 -12.601562 15.359375 -11.09375 C 15.359375 -10.375 15.300781 -9.660156 15.1875 -8.953125 C 15.082031 -8.253906 15.03125 -7.546875 15.03125 -6.828125 C 15.03125 -6.503906 15.050781 -6.164062 15.09375 -5.8125 C 15.144531 -5.457031 15.222656 -5.101562 15.328125 -4.75 C 15.429688 -4.40625 15.585938 -4.09375 15.796875 -3.8125 C 16.003906 -3.539062 16.28125 -3.332031 16.625 -3.1875 C 16.726562 -3.144531 16.816406 -3.117188 16.890625 -3.109375 C 16.960938 -3.097656 17.039062 -3.082031 17.125 -3.0625 C 17.207031 -3.0625 17.28125 -3.054688 17.34375 -3.046875 C 17.40625 -3.035156 17.476562 -3.03125 17.5625 -3.03125 C 17.6875 -3.007812 17.820312 -2.976562 17.96875 -2.9375 C 18.125 -2.894531 18.304688 -2.789062 18.515625 -2.625 C 18.847656 -2.332031 19.015625 -1.984375 19.015625 -1.578125 C 19.015625 -1.097656 18.796875 -0.71875 18.359375 -0.4375 C 17.929688 -0.164062 17.488281 -0.03125 17.03125 -0.03125 C 16.125 -0.03125 15.316406 -0.269531 14.609375 -0.75 C 13.898438 -1.238281 13.304688 -1.851562 12.828125 -2.59375 L 12.703125 -2.78125 Z M 7.515625 -3.1875 L 7.796875 -3.1875 C 8.578125 -3.1875 9.222656 -3.503906 9.734375 -4.140625 C 10.253906 -4.773438 10.664062 -5.523438 10.96875 -6.390625 C 11.28125 -7.265625 11.5 -8.15625 11.625 -9.0625 C 11.75 -9.96875 11.8125 -10.695312 11.8125 -11.25 C 11.8125 -11.75 11.613281 -12.09375 11.21875 -12.28125 C 10.832031 -12.476562 10.429688 -12.578125 10.015625 -12.578125 C 9.253906 -12.578125 8.613281 -12.375 8.09375 -11.96875 C 7.582031 -11.570312 7.15625 -11.070312 6.8125 -10.46875 C 6.476562 -9.875 6.238281 -9.226562 6.09375 -8.53125 C 5.945312 -7.832031 5.875 -7.191406 5.875 -6.609375 C 5.875 -6.367188 5.894531 -6.085938 5.9375 -5.765625 C 5.976562 -5.441406 6.050781 -5.113281 6.15625 -4.78125 C 6.257812 -4.457031 6.394531 -4.15625 6.5625 -3.875 C 6.738281 -3.601562 6.953125 -3.40625 7.203125 -3.28125 C 7.242188 -3.238281 7.289062 -3.21875 7.34375 -3.21875 C 7.394531 -3.21875 7.453125 -3.207031 7.515625 -3.1875 Z M 7.515625 -3.1875 "/></g></g></g><g fill="#ff6e14" fill-opacity="1"><g transform="translate(234.271769, 236.936911)"><g><path d="M 2.5625 -1.546875 C 2.5625 -4.640625 2.550781 -7.71875 2.53125 -10.78125 C 2.507812 -13.851562 2.5 -16.9375 2.5 -20.03125 C 2.5 -20.445312 2.648438 -20.804688 2.953125 -21.109375 C 3.253906 -21.421875 3.628906 -21.578125 4.078125 -21.578125 C 4.535156 -21.578125 4.921875 -21.429688 5.234375 -21.140625 C 5.554688 -20.859375 5.71875 -20.488281 5.71875 -20.03125 C 5.71875 -16.9375 5.726562 -13.851562 5.75 -10.78125 C 5.769531 -7.71875 5.78125 -4.640625 5.78125 -1.546875 C 5.78125 -1.109375 5.617188 -0.738281 5.296875 -0.4375 C 4.984375 -0.144531 4.609375 0 4.171875 0 C 3.742188 0 3.367188 -0.148438 3.046875 -0.453125 C 2.722656 -0.765625 2.5625 -1.128906 2.5625 -1.546875 Z M 2.5625 -1.546875 "/></g></g></g><g fill="#50a23c" fill-opacity="1"><g transform="translate(243.151193, 236.936911)"><g><path d="M 4.984375 -6.796875 L 4.984375 -6.734375 C 5.054688 -6.304688 5.179688 -5.867188 5.359375 -5.421875 C 5.535156 -4.984375 5.757812 -4.59375 6.03125 -4.25 C 6.300781 -3.90625 6.628906 -3.617188 7.015625 -3.390625 C 7.410156 -3.171875 7.863281 -3.0625 8.375 -3.0625 C 8.9375 -3.0625 9.453125 -3.15625 9.921875 -3.34375 C 10.398438 -3.539062 10.84375 -3.753906 11.25 -3.984375 C 11.457031 -4.109375 11.65625 -4.222656 11.84375 -4.328125 C 12.03125 -4.429688 12.210938 -4.523438 12.390625 -4.609375 C 12.679688 -4.816406 12.960938 -4.921875 13.234375 -4.921875 C 13.703125 -4.921875 14.09375 -4.753906 14.40625 -4.421875 C 14.71875 -4.085938 14.875 -3.695312 14.875 -3.25 C 14.875 -2.707031 14.65625 -2.265625 14.21875 -1.921875 C 13.84375 -1.628906 13.421875 -1.359375 12.953125 -1.109375 C 12.492188 -0.859375 12.003906 -0.632812 11.484375 -0.4375 C 10.960938 -0.25 10.441406 -0.101562 9.921875 0 C 9.410156 0.101562 8.925781 0.15625 8.46875 0.15625 C 7.351562 0.15625 6.363281 -0.0703125 5.5 -0.53125 C 4.632812 -1 3.910156 -1.601562 3.328125 -2.34375 C 2.753906 -3.09375 2.3125 -3.953125 2 -4.921875 C 1.695312 -5.890625 1.546875 -6.882812 1.546875 -7.90625 C 1.546875 -8.914062 1.707031 -9.890625 2.03125 -10.828125 C 2.363281 -11.765625 2.835938 -12.59375 3.453125 -13.3125 C 4.078125 -14.039062 4.828125 -14.617188 5.703125 -15.046875 C 6.578125 -15.484375 7.5625 -15.703125 8.65625 -15.703125 C 10.175781 -15.703125 11.460938 -15.320312 12.515625 -14.5625 C 13.566406 -13.800781 14.332031 -12.726562 14.8125 -11.34375 C 14.914062 -11.09375 14.992188 -10.835938 15.046875 -10.578125 C 15.109375 -10.328125 15.140625 -10.054688 15.140625 -9.765625 C 15.140625 -9.066406 14.972656 -8.53125 14.640625 -8.15625 C 14.316406 -7.789062 13.898438 -7.523438 13.390625 -7.359375 C 12.929688 -7.191406 12.375 -7.085938 11.71875 -7.046875 C 11.425781 -7.003906 11.132812 -6.984375 10.84375 -6.984375 C 10.5625 -6.984375 10.285156 -6.984375 10.015625 -6.984375 C 9.503906 -6.960938 9 -6.957031 8.5 -6.96875 C 8.007812 -6.976562 7.515625 -6.972656 7.015625 -6.953125 C 6.679688 -6.929688 6.351562 -6.90625 6.03125 -6.875 C 5.71875 -6.84375 5.394531 -6.816406 5.0625 -6.796875 Z M 5.375 -10.171875 L 6.09375 -10.171875 C 6.644531 -10.171875 7.179688 -10.179688 7.703125 -10.203125 C 8.234375 -10.222656 8.769531 -10.234375 9.3125 -10.234375 C 10.09375 -10.234375 10.84375 -10.265625 11.5625 -10.328125 L 11.65625 -10.328125 L 11.625 -10.421875 C 11.582031 -10.503906 11.554688 -10.578125 11.546875 -10.640625 C 11.535156 -10.703125 11.507812 -10.769531 11.46875 -10.84375 C 11.445312 -10.96875 11.375 -11.101562 11.25 -11.25 C 10.9375 -11.625 10.546875 -11.914062 10.078125 -12.125 C 9.617188 -12.34375 9.132812 -12.453125 8.625 -12.453125 C 7.820312 -12.453125 7.164062 -12.253906 6.65625 -11.859375 C 6.15625 -11.472656 5.738281 -10.941406 5.40625 -10.265625 Z M 5.375 -10.171875 "/></g></g></g><g fill="#ff5757" fill-opacity="1"><g transform="translate(258.651638, 237.728012)"><g><path d="M 10.328125 -5.28125 C 10.117188 -5.53125 9.863281 -5.738281 9.5625 -5.90625 C 9.269531 -6.070312 8.957031 -6.21875 8.625 -6.34375 C 8.289062 -6.5 7.953125 -6.632812 7.609375 -6.75 C 7.273438 -6.863281 6.972656 -6.984375 6.703125 -7.109375 C 5.816406 -7.523438 5.101562 -8.03125 4.5625 -8.625 C 4.03125 -9.21875 3.765625 -10.019531 3.765625 -11.03125 C 3.765625 -11.71875 3.90625 -12.359375 4.1875 -12.953125 C 4.46875 -13.546875 4.84375 -14.054688 5.3125 -14.484375 C 5.789062 -14.921875 6.347656 -15.257812 6.984375 -15.5 C 7.617188 -15.738281 8.28125 -15.859375 8.96875 -15.859375 C 10.039062 -15.859375 11.015625 -15.566406 11.890625 -14.984375 C 12.765625 -14.410156 13.40625 -13.640625 13.8125 -12.671875 C 13.894531 -12.484375 13.9375 -12.289062 13.9375 -12.09375 C 13.9375 -11.65625 13.769531 -11.285156 13.4375 -10.984375 C 13.113281 -10.691406 12.722656 -10.546875 12.265625 -10.546875 C 11.898438 -10.546875 11.59375 -10.65625 11.34375 -10.875 C 11.257812 -10.9375 11.15625 -11.050781 11.03125 -11.21875 C 10.90625 -11.382812 10.820312 -11.519531 10.78125 -11.625 C 10.582031 -11.894531 10.363281 -12.144531 10.125 -12.375 C 9.882812 -12.613281 9.488281 -12.734375 8.9375 -12.734375 C 8.726562 -12.734375 8.503906 -12.691406 8.265625 -12.609375 C 8.023438 -12.523438 7.800781 -12.398438 7.59375 -12.234375 C 7.394531 -12.078125 7.234375 -11.894531 7.109375 -11.6875 C 6.984375 -11.476562 6.921875 -11.257812 6.921875 -11.03125 C 6.921875 -10.769531 7.019531 -10.546875 7.21875 -10.359375 C 7.414062 -10.171875 7.675781 -10.003906 8 -9.859375 C 8.3125 -9.691406 8.671875 -9.53125 9.078125 -9.375 C 9.492188 -9.226562 9.910156 -9.0625 10.328125 -8.875 C 10.753906 -8.6875 11.164062 -8.484375 11.5625 -8.265625 C 11.957031 -8.046875 12.3125 -7.785156 12.625 -7.484375 C 12.945312 -7.191406 13.203125 -6.84375 13.390625 -6.4375 C 13.585938 -6.039062 13.6875 -5.582031 13.6875 -5.0625 C 13.6875 -4.71875 13.640625 -4.390625 13.546875 -4.078125 C 13.460938 -3.765625 13.359375 -3.457031 13.234375 -3.15625 C 12.796875 -2.125 12.128906 -1.332031 11.234375 -0.78125 C 10.335938 -0.238281 9.320312 0.03125 8.1875 0.03125 C 7.46875 0.03125 6.757812 -0.0820312 6.0625 -0.3125 C 5.363281 -0.539062 4.742188 -0.875 4.203125 -1.3125 C 3.671875 -1.757812 3.242188 -2.289062 2.921875 -2.90625 C 2.597656 -3.519531 2.4375 -4.203125 2.4375 -4.953125 C 2.4375 -5.378906 2.59375 -5.742188 2.90625 -6.046875 C 3.21875 -6.359375 3.597656 -6.515625 4.046875 -6.515625 C 4.503906 -6.515625 4.875 -6.363281 5.15625 -6.0625 C 5.445312 -5.769531 5.59375 -5.398438 5.59375 -4.953125 C 5.59375 -4.640625 5.675781 -4.363281 5.84375 -4.125 C 6.007812 -3.882812 6.21875 -3.679688 6.46875 -3.515625 C 6.726562 -3.359375 7.003906 -3.238281 7.296875 -3.15625 C 7.585938 -3.070312 7.875 -3.03125 8.15625 -3.03125 C 8.59375 -3.03125 9.007812 -3.132812 9.40625 -3.34375 C 9.8125 -3.5625 10.109375 -3.878906 10.296875 -4.296875 C 10.335938 -4.378906 10.378906 -4.484375 10.421875 -4.609375 C 10.460938 -4.734375 10.484375 -4.847656 10.484375 -4.953125 C 10.484375 -4.992188 10.460938 -5.0625 10.421875 -5.15625 C 10.398438 -5.175781 10.382812 -5.195312 10.375 -5.21875 C 10.363281 -5.238281 10.347656 -5.257812 10.328125 -5.28125 Z M 10.328125 -5.28125 "/></g></g></g></svg>