<svg xmlns="http://www.w3.org/2000/svg" xmlns:xlink="http://www.w3.org/1999/xlink" width="1366" zoomAndPan="magnify" viewBox="0 0 1024.5 576" height="768" preserveAspectRatio="xMidYMid meet" version="1.0"><defs><filter x="0%" y="0%" width="100%" height="100%" id="c4aaf67465"><feColorMatrix values="0 0 0 0 1 0 0 0 0 1 0 0 0 0 1 0 0 0 1 0" color-interpolation-filters="sRGB"/></filter><clipPath id="c66d3c488d"><path d="M 0 0.140625 L 1024 0.140625 L 1024 575.859375 L 0 575.859375 Z M 0 0.140625 " clip-rule="nonzero"/></clipPath><mask id="7a8dd15ed9"><g filter="url(#c4aaf67465)"><rect x="-102.45" width="1229.4" fill="#000000" y="-57.6" height="691.2" fill-opacity="0.6471"/></g></mask><clipPath id="5ad6246153"><path d="M 0 0.742188 L 1024 0.742188 L 1024 512.992188 L 0 512.992188 Z M 0 0.742188 " clip-rule="nonzero"/></clipPath><clipPath id="03d00ba080"><path d="M 950 0.742188 L 957 0.742188 L 957 7 L 950 7 Z M 950 0.742188 " clip-rule="nonzero"/></clipPath><clipPath id="c72784dad0"><path d="M 86 0.742188 L 112 0.742188 L 112 15 L 86 15 Z M 86 0.742188 " clip-rule="nonzero"/></clipPath><clipPath id="fa47251689"><rect x="0" width="1024" y="0" height="514"/></clipPath></defs><g clip-path="url(#c66d3c488d)"><path fill="#ffffff" d="M 0 0.140625 L 1024.5 0.140625 L 1024.5 583.640625 L 0 583.640625 Z M 0 0.140625 " fill-opacity="1" fill-rule="nonzero"/><path fill="#ffffff" d="M 0 0.140625 L 1024.5 0.140625 L 1024.5 576.140625 L 0 576.140625 Z M 0 0.140625 " fill-opacity="1" fill-rule="nonzero"/><path fill="#ffffff" d="M 0 0.140625 L 1024.5 0.140625 L 1024.5 576.140625 L 0 576.140625 Z M 0 0.140625 " fill-opacity="1" fill-rule="nonzero"/></g><g mask="url(#7a8dd15ed9)"><g transform="matrix(1, 0, 0, 1, 0, 57)"><g clip-path="url(#fa47251689)"><g clip-path="url(#5ad6246153)"><path fill="#caf0f8" d="M 0 0.742188 L 1024.5 0.742188 L 1024.5 512.992188 L 0 512.992188 Z M 0 0.742188 " fill-opacity="1" fill-rule="nonzero"/></g><path fill="#90e0ef" d="M 988.074219 97.269531 L 991.488281 107.628906 L 1002.417969 107.628906 L 993.539062 114.117188 L 996.953125 124.476562 L 988.074219 117.988281 L 979.195312 124.476562 L 982.609375 114.117188 L 973.730469 107.628906 L 984.660156 107.628906 Z M 988.074219 97.269531 " fill-opacity="1" fill-rule="nonzero"/><path fill="#90e0ef" d="M 207.175781 435.699219 L 207.40625 436.378906 L 208.199219 436.378906 L 207.519531 436.835938 L 207.859375 437.632812 L 207.175781 437.175781 L 206.492188 437.632812 L 206.835938 436.835938 L 206.152344 436.378906 L 206.949219 436.378906 Z M 207.175781 435.699219 " fill-opacity="1" fill-rule="nonzero"/><path fill="#90e0ef" d="M 273.199219 229.773438 L 274.109375 232.734375 L 277.296875 232.734375 L 274.792969 234.554688 L 275.703125 237.628906 L 273.199219 235.691406 L 270.695312 237.628906 L 271.605469 234.554688 L 269.101562 232.734375 L 272.289062 232.734375 Z M 273.199219 229.773438 " fill-opacity="1" fill-rule="nonzero"/><path fill="#90e0ef" d="M 11.382812 199.152344 L 12.863281 203.707031 L 17.53125 203.707031 L 13.773438 206.4375 L 15.140625 210.875 L 11.382812 208.144531 L 7.625 210.875 L 8.992188 206.4375 L 5.238281 203.707031 L 9.902344 203.707031 Z M 11.382812 199.152344 " fill-opacity="1" fill-rule="nonzero"/><path fill="#90e0ef" d="M 201.484375 344.175781 L 204.332031 353.054688 L 213.777344 353.054688 L 206.152344 358.519531 L 209.113281 367.511719 L 201.484375 361.933594 L 193.859375 367.511719 L 196.816406 358.519531 L 189.191406 353.054688 L 198.640625 353.054688 Z M 201.484375 344.175781 " fill-opacity="1" fill-rule="nonzero"/><path fill="#90e0ef" d="M 911.804688 12.238281 L 912.03125 12.921875 L 912.828125 12.921875 L 912.144531 13.375 L 912.488281 14.171875 L 911.804688 13.71875 L 911.121094 14.171875 L 911.464844 13.375 L 910.78125 12.921875 L 911.578125 12.921875 Z M 911.804688 12.238281 " fill-opacity="1" fill-rule="nonzero"/><path fill="#90e0ef" d="M 266.371094 129.941406 L 268.53125 136.65625 L 275.589844 136.65625 L 269.898438 140.753906 L 272.0625 147.472656 L 266.371094 143.261719 L 260.679688 147.472656 L 262.839844 140.753906 L 257.148438 136.65625 L 264.207031 136.65625 Z M 266.371094 129.941406 " fill-opacity="1" fill-rule="nonzero"/><path fill="#90e0ef" d="M 422.320312 412.363281 L 424.941406 420.558594 L 433.589844 420.558594 L 426.648438 425.566406 L 429.265625 433.761719 L 422.320312 428.753906 L 415.378906 433.761719 L 417.996094 425.566406 L 411.050781 420.558594 L 419.703125 420.558594 Z M 422.320312 412.363281 " fill-opacity="1" fill-rule="nonzero"/><path fill="#90e0ef" d="M 165.058594 124.023438 L 166.539062 128.574219 L 171.207031 128.574219 L 167.449219 131.308594 L 168.816406 135.746094 L 165.058594 133.015625 L 161.300781 135.746094 L 162.667969 131.308594 L 158.910156 128.574219 L 163.578125 128.574219 Z M 165.058594 124.023438 " fill-opacity="1" fill-rule="nonzero"/><path fill="#90e0ef" d="M 357.4375 69.382812 L 358.6875 73.023438 L 362.558594 73.023438 L 359.371094 75.414062 L 360.625 79.058594 L 357.4375 76.78125 L 354.25 79.058594 L 355.5 75.414062 L 352.3125 73.023438 L 356.183594 73.023438 Z M 357.4375 69.382812 " fill-opacity="1" fill-rule="nonzero"/><path fill="#90e0ef" d="M 902.699219 104.785156 L 904.632812 110.816406 L 910.894531 110.816406 L 905.773438 114.460938 L 907.707031 120.378906 L 902.699219 116.738281 L 897.691406 120.378906 L 899.625 114.460938 L 894.503906 110.816406 L 900.761719 110.816406 Z M 902.699219 104.785156 " fill-opacity="1" fill-rule="nonzero"/><path fill="#90e0ef" d="M 121.800781 66.992188 L 122.710938 69.949219 L 125.898438 69.949219 L 123.394531 71.773438 L 124.304688 74.847656 L 121.800781 72.910156 L 119.296875 74.847656 L 120.207031 71.773438 L 117.703125 69.949219 L 120.890625 69.949219 Z M 121.800781 66.992188 " fill-opacity="1" fill-rule="nonzero"/><path fill="#90e0ef" d="M 276.613281 381.058594 L 277.070312 382.539062 L 278.664062 382.539062 L 277.410156 383.449219 L 277.867188 384.929688 L 276.613281 384.015625 L 275.363281 384.929688 L 275.816406 383.449219 L 274.566406 382.539062 L 276.160156 382.539062 Z M 276.613281 381.058594 " fill-opacity="1" fill-rule="nonzero"/><path fill="#90e0ef" d="M 252.710938 186.515625 L 253.621094 189.476562 L 256.808594 189.476562 L 254.304688 191.296875 L 255.214844 194.371094 L 252.710938 192.4375 L 250.207031 194.371094 L 251.117188 191.296875 L 248.613281 189.476562 L 251.800781 189.476562 Z M 252.710938 186.515625 " fill-opacity="1" fill-rule="nonzero"/><path fill="#90e0ef" d="M 243.601562 65.96875 L 244.855469 69.609375 L 248.726562 69.609375 L 245.539062 72 L 246.789062 75.644531 L 243.601562 73.367188 L 240.414062 75.644531 L 241.667969 72 L 238.480469 69.609375 L 242.351562 69.609375 Z M 243.601562 65.96875 " fill-opacity="1" fill-rule="nonzero"/><path fill="#90e0ef" d="M 486.066406 404.394531 L 488.6875 412.589844 L 497.335938 412.589844 L 490.394531 417.597656 L 493.011719 425.792969 L 486.066406 420.785156 L 479.125 425.792969 L 481.742188 417.597656 L 474.796875 412.589844 L 483.449219 412.589844 Z M 486.066406 404.394531 " fill-opacity="1" fill-rule="nonzero"/><path fill="#90e0ef" d="M 336.945312 462.222656 L 338.652344 467.457031 L 344.117188 467.457031 L 339.679688 470.644531 L 341.386719 475.765625 L 336.945312 472.578125 L 332.507812 475.765625 L 334.214844 470.644531 L 329.773438 467.457031 L 335.238281 467.457031 Z M 336.945312 462.222656 " fill-opacity="1" fill-rule="nonzero"/><path fill="#90e0ef" d="M 851.472656 49.003906 L 853.179688 54.242188 L 858.644531 54.242188 L 854.207031 57.429688 L 855.914062 62.550781 L 851.472656 59.363281 L 847.035156 62.550781 L 848.742188 57.429688 L 844.300781 54.242188 L 849.765625 54.242188 Z M 851.472656 49.003906 " fill-opacity="1" fill-rule="nonzero"/><path fill="#90e0ef" d="M 775.203125 69.15625 L 775.660156 70.632812 L 777.253906 70.632812 L 776 71.542969 L 776.457031 73.023438 L 775.203125 72.113281 L 773.953125 73.023438 L 774.40625 71.542969 L 773.15625 70.632812 L 774.75 70.632812 Z M 775.203125 69.15625 " fill-opacity="1" fill-rule="nonzero"/><path fill="#90e0ef" d="M 889.039062 352.714844 L 889.722656 354.875 L 892.113281 354.875 L 890.175781 356.242188 L 890.972656 358.519531 L 889.039062 357.152344 L 887.101562 358.519531 L 887.898438 356.242188 L 885.964844 354.875 L 888.355469 354.875 Z M 889.039062 352.714844 " fill-opacity="1" fill-rule="nonzero"/><path fill="#90e0ef" d="M 401.832031 270.867188 L 403.082031 274.507812 L 406.953125 274.507812 L 403.765625 276.898438 L 405.019531 280.542969 L 401.832031 278.265625 L 398.644531 280.542969 L 399.894531 276.898438 L 396.710938 274.507812 L 400.578125 274.507812 Z M 401.832031 270.867188 " fill-opacity="1" fill-rule="nonzero"/><path fill="#90e0ef" d="M 761.546875 315.71875 L 764.390625 324.597656 L 773.839844 324.597656 L 766.210938 330.058594 L 769.171875 339.054688 L 761.546875 333.476562 L 753.917969 339.054688 L 756.878906 330.058594 L 749.25 324.597656 L 758.699219 324.597656 Z M 761.546875 315.71875 " fill-opacity="1" fill-rule="nonzero"/><path fill="#90e0ef" d="M 435.980469 369.21875 L 438.828125 378.097656 L 448.277344 378.097656 L 440.648438 383.5625 L 443.609375 392.554688 L 435.980469 386.976562 L 428.355469 392.554688 L 431.316406 383.5625 L 423.6875 378.097656 L 433.136719 378.097656 Z M 435.980469 369.21875 " fill-opacity="1" fill-rule="nonzero"/><path fill="#90e0ef" d="M 465.578125 91.464844 L 468.425781 100.34375 L 477.871094 100.34375 L 470.246094 105.808594 L 473.207031 114.800781 L 465.578125 109.222656 L 457.953125 114.800781 L 460.910156 105.808594 L 453.285156 100.34375 L 462.734375 100.34375 Z M 465.578125 91.464844 " fill-opacity="1" fill-rule="nonzero"/><path fill="#90e0ef" d="M 609.007812 344.0625 L 611.625 352.257812 L 620.277344 352.257812 L 613.332031 357.265625 L 615.953125 365.460938 L 609.007812 360.453125 L 602.0625 365.460938 L 604.683594 357.265625 L 597.738281 352.257812 L 606.390625 352.257812 Z M 609.007812 344.0625 " fill-opacity="1" fill-rule="nonzero"/><path fill="#90e0ef" d="M 825.292969 399.5 L 826.769531 404.050781 L 831.4375 404.050781 L 827.683594 406.785156 L 829.046875 411.222656 L 825.292969 408.492188 L 821.535156 411.222656 L 822.902344 406.785156 L 819.144531 404.050781 L 823.8125 404.050781 Z M 825.292969 399.5 " fill-opacity="1" fill-rule="nonzero"/><path fill="#90e0ef" d="M 734.226562 208.144531 L 734.90625 210.308594 L 737.296875 210.308594 L 735.363281 211.671875 L 736.160156 213.949219 L 734.226562 212.585938 L 732.289062 213.949219 L 733.085938 211.671875 L 731.152344 210.308594 L 733.542969 210.308594 Z M 734.226562 208.144531 " fill-opacity="1" fill-rule="nonzero"/><path fill="#90e0ef" d="M 491.761719 8.027344 L 493.695312 14.058594 L 499.957031 14.058594 L 494.832031 17.703125 L 496.769531 23.621094 L 491.761719 19.976562 L 486.75 23.621094 L 488.6875 17.703125 L 483.5625 14.058594 L 489.824219 14.058594 Z M 491.761719 8.027344 " fill-opacity="1" fill-rule="nonzero"/><path fill="#90e0ef" d="M 19.351562 12.808594 L 21.96875 21.003906 L 30.621094 21.003906 L 23.675781 26.011719 L 26.296875 34.207031 L 19.351562 29.199219 L 12.40625 34.207031 L 15.027344 26.011719 L 8.082031 21.003906 L 16.734375 21.003906 Z M 19.351562 12.808594 " fill-opacity="1" fill-rule="nonzero"/><path fill="#90e0ef" d="M 415.492188 446.511719 L 417.882812 453.910156 L 425.738281 453.910156 L 419.363281 458.464844 L 421.753906 465.863281 L 415.492188 461.308594 L 409.230469 465.863281 L 411.621094 458.464844 L 405.246094 453.910156 L 413.101562 453.910156 Z M 415.492188 446.511719 " fill-opacity="1" fill-rule="nonzero"/><g clip-path="url(#03d00ba080)"><path fill="#90e0ef" d="M 953.921875 0.96875 L 954.605469 3.132812 L 956.996094 3.132812 L 955.0625 4.496094 L 955.859375 6.773438 L 953.921875 5.40625 L 951.988281 6.773438 L 952.785156 4.496094 L 950.851562 3.132812 L 953.242188 3.132812 Z M 953.921875 0.96875 " fill-opacity="1" fill-rule="nonzero"/></g><path fill="#90e0ef" d="M 434.84375 18.042969 L 435.527344 20.207031 L 437.917969 20.207031 L 435.980469 21.570312 L 436.777344 23.847656 L 434.84375 22.484375 L 432.90625 23.847656 L 433.703125 21.570312 L 431.769531 20.207031 L 434.160156 20.207031 Z M 434.84375 18.042969 " fill-opacity="1" fill-rule="nonzero"/><path fill="#90e0ef" d="M 986.933594 389.480469 L 989.097656 396.199219 L 996.15625 396.199219 L 990.464844 400.296875 L 992.625 407.011719 L 986.933594 402.800781 L 981.242188 407.011719 L 983.40625 400.296875 L 977.714844 396.199219 L 984.773438 396.199219 Z M 986.933594 389.480469 " fill-opacity="1" fill-rule="nonzero"/><path fill="#90e0ef" d="M 187.824219 258.6875 L 190.214844 266.085938 L 198.070312 266.085938 L 191.695312 270.640625 L 194.085938 278.039062 L 187.824219 273.484375 L 181.5625 278.039062 L 183.953125 270.640625 L 177.578125 266.085938 L 185.433594 266.085938 Z M 187.824219 258.6875 " fill-opacity="1" fill-rule="nonzero"/><path fill="#90e0ef" d="M 47.808594 210.875 L 50.429688 219.074219 L 59.078125 219.074219 L 52.136719 224.082031 L 54.753906 232.277344 L 47.808594 227.269531 L 40.867188 232.277344 L 43.484375 224.082031 L 36.539062 219.074219 L 45.191406 219.074219 Z M 47.808594 210.875 " fill-opacity="1" fill-rule="nonzero"/><path fill="#90e0ef" d="M 387.035156 111.5 L 388.511719 116.054688 L 393.179688 116.054688 L 389.421875 118.785156 L 390.789062 123.226562 L 387.035156 120.492188 L 383.277344 123.226562 L 384.644531 118.785156 L 380.886719 116.054688 L 385.554688 116.054688 Z M 387.035156 111.5 " fill-opacity="1" fill-rule="nonzero"/><path fill="#90e0ef" d="M 326.703125 288.054688 L 328.636719 294.089844 L 334.898438 294.089844 L 329.773438 297.730469 L 331.710938 303.652344 L 326.703125 300.007812 L 321.691406 303.652344 L 323.628906 297.730469 L 318.503906 294.089844 L 324.765625 294.089844 Z M 326.703125 288.054688 " fill-opacity="1" fill-rule="nonzero"/><path fill="#90e0ef" d="M 711.457031 461.992188 L 712.140625 464.15625 L 714.53125 464.15625 L 712.597656 465.523438 L 713.394531 467.796875 L 711.457031 466.433594 L 709.523438 467.796875 L 710.320312 465.523438 L 708.382812 464.15625 L 710.773438 464.15625 Z M 711.457031 461.992188 " fill-opacity="1" fill-rule="nonzero"/><path fill="#90e0ef" d="M 18.214844 273.03125 L 18.894531 275.191406 L 21.285156 275.191406 L 19.351562 276.558594 L 20.148438 278.835938 L 18.214844 277.46875 L 16.277344 278.835938 L 17.074219 276.558594 L 15.140625 275.191406 L 17.53125 275.191406 Z M 18.214844 273.03125 " fill-opacity="1" fill-rule="nonzero"/><path fill="#90e0ef" d="M 176.441406 64.601562 L 176.898438 66.082031 L 178.492188 66.082031 L 177.238281 66.992188 L 177.695312 68.472656 L 176.441406 67.5625 L 175.191406 68.472656 L 175.644531 66.992188 L 174.394531 66.082031 L 175.984375 66.082031 Z M 176.441406 64.601562 " fill-opacity="1" fill-rule="nonzero"/><path fill="#90e0ef" d="M 926.601562 247.988281 L 927.515625 250.945312 L 930.703125 250.945312 L 928.195312 252.765625 L 929.109375 255.839844 L 926.601562 253.90625 L 924.097656 255.839844 L 925.007812 252.765625 L 922.503906 250.945312 L 925.691406 250.945312 Z M 926.601562 247.988281 " fill-opacity="1" fill-rule="nonzero"/><path fill="#90e0ef" d="M 44.394531 155.894531 L 45.648438 159.539062 L 49.515625 159.539062 L 46.332031 161.929688 L 47.582031 165.570312 L 44.394531 163.292969 L 41.207031 165.570312 L 42.460938 161.929688 L 39.273438 159.539062 L 43.144531 159.539062 Z M 44.394531 155.894531 " fill-opacity="1" fill-rule="nonzero"/><path fill="#90e0ef" d="M 660.234375 414.070312 L 660.6875 415.550781 L 662.28125 415.550781 L 661.03125 416.460938 L 661.484375 417.941406 L 660.234375 417.027344 L 658.980469 417.941406 L 659.4375 416.460938 L 658.183594 415.550781 L 659.777344 415.550781 Z M 660.234375 414.070312 " fill-opacity="1" fill-rule="nonzero"/><path fill="#90e0ef" d="M 184.410156 230.796875 L 184.636719 231.480469 L 185.433594 231.480469 L 184.75 231.9375 L 185.09375 232.734375 L 184.410156 232.277344 L 183.726562 232.734375 L 184.070312 231.9375 L 183.386719 231.480469 L 184.183594 231.480469 Z M 184.410156 230.796875 " fill-opacity="1" fill-rule="nonzero"/><path fill="#90e0ef" d="M 882.207031 34.207031 L 884.144531 40.242188 L 890.402344 40.242188 L 885.28125 43.882812 L 887.21875 49.800781 L 882.207031 46.160156 L 877.199219 49.800781 L 879.132812 43.882812 L 874.011719 40.242188 L 880.273438 40.242188 Z M 882.207031 34.207031 " fill-opacity="1" fill-rule="nonzero"/><path fill="#90e0ef" d="M 119.523438 450.609375 L 120.207031 452.773438 L 122.597656 452.773438 L 120.664062 454.136719 L 121.460938 456.414062 L 119.523438 455.050781 L 117.589844 456.414062 L 118.386719 454.136719 L 116.453125 452.773438 L 118.84375 452.773438 Z M 119.523438 450.609375 " fill-opacity="1" fill-rule="nonzero"/><path fill="#90e0ef" d="M 446.226562 224.082031 L 447.136719 227.042969 L 450.324219 227.042969 L 447.820312 228.863281 L 448.730469 231.9375 L 446.226562 230 L 443.722656 231.9375 L 444.632812 228.863281 L 442.128906 227.042969 L 445.316406 227.042969 Z M 446.226562 224.082031 " fill-opacity="1" fill-rule="nonzero"/><path fill="#90e0ef" d="M 688.691406 87.824219 L 690.855469 94.539062 L 697.914062 94.539062 L 692.21875 98.636719 L 694.382812 105.351562 L 688.691406 101.140625 L 683 105.351562 L 685.164062 98.636719 L 679.472656 94.539062 L 686.527344 94.539062 Z M 688.691406 87.824219 " fill-opacity="1" fill-rule="nonzero"/><path fill="#90e0ef" d="M 582.828125 254.703125 L 583.054688 255.386719 L 583.851562 255.386719 L 583.167969 255.839844 L 583.507812 256.636719 L 582.828125 256.183594 L 582.144531 256.636719 L 582.484375 255.839844 L 581.800781 255.386719 L 582.597656 255.386719 Z M 582.828125 254.703125 " fill-opacity="1" fill-rule="nonzero"/><path fill="#90e0ef" d="M 364.265625 324.367188 L 365.519531 328.011719 L 369.390625 328.011719 L 366.203125 330.402344 L 367.453125 334.042969 L 364.265625 331.769531 L 361.078125 334.042969 L 362.332031 330.402344 L 359.144531 328.011719 L 363.015625 328.011719 Z M 364.265625 324.367188 " fill-opacity="1" fill-rule="nonzero"/><g clip-path="url(#c72784dad0)"><path fill="#90e0ef" d="M 99.035156 -8.707031 L 101.878906 0.171875 L 111.328125 0.171875 L 103.703125 5.636719 L 106.660156 14.628906 L 99.035156 9.050781 L 91.40625 14.628906 L 94.367188 5.636719 L 86.742188 0.171875 L 96.1875 0.171875 Z M 99.035156 -8.707031 " fill-opacity="1" fill-rule="nonzero"/></g><path fill="#90e0ef" d="M 10.246094 58 L 11.726562 62.550781 L 16.390625 62.550781 L 12.636719 65.285156 L 14 69.722656 L 10.246094 66.992188 L 6.488281 69.722656 L 7.855469 65.285156 L 4.097656 62.550781 L 8.765625 62.550781 Z M 10.246094 58 " fill-opacity="1" fill-rule="nonzero"/><path fill="#90e0ef" d="M 695.523438 282.023438 L 695.75 282.707031 L 696.546875 282.707031 L 695.863281 283.160156 L 696.203125 283.957031 L 695.523438 283.503906 L 694.839844 283.957031 L 695.179688 283.160156 L 694.496094 282.707031 L 695.292969 282.707031 Z M 695.523438 282.023438 " fill-opacity="1" fill-rule="nonzero"/><path fill="#90e0ef" d="M 618.113281 312.871094 L 618.796875 315.035156 L 621.1875 315.035156 L 619.253906 316.398438 L 620.050781 318.675781 L 618.113281 317.3125 L 616.179688 318.675781 L 616.976562 316.398438 L 615.042969 315.035156 L 617.433594 315.035156 Z M 618.113281 312.871094 " fill-opacity="1" fill-rule="nonzero"/><path fill="#90e0ef" d="M 973.273438 198.128906 L 974.980469 203.363281 L 980.445312 203.363281 L 976.007812 206.550781 L 977.714844 211.671875 L 973.273438 208.484375 L 968.835938 211.671875 L 970.542969 206.550781 L 966.101562 203.363281 L 971.566406 203.363281 Z M 973.273438 198.128906 " fill-opacity="1" fill-rule="nonzero"/><path fill="#90e0ef" d="M 603.316406 435.242188 L 606.164062 444.121094 L 615.609375 444.121094 L 607.984375 449.585938 L 610.945312 458.578125 L 603.316406 453 L 595.691406 458.578125 L 598.648438 449.585938 L 591.023438 444.121094 L 600.472656 444.121094 Z M 603.316406 435.242188 " fill-opacity="1" fill-rule="nonzero"/><path fill="#90e0ef" d="M 97.898438 139.957031 L 99.375 144.511719 L 104.042969 144.511719 L 100.289062 147.242188 L 101.652344 151.683594 L 97.898438 148.953125 L 94.140625 151.683594 L 95.507812 147.242188 L 91.75 144.511719 L 96.417969 144.511719 Z M 97.898438 139.957031 " fill-opacity="1" fill-rule="nonzero"/><path fill="#90e0ef" d="M 349.46875 385.042969 L 351.859375 392.441406 L 359.714844 392.441406 L 353.339844 396.996094 L 355.730469 404.394531 L 349.46875 399.839844 L 343.207031 404.394531 L 345.597656 396.996094 L 339.222656 392.441406 L 347.078125 392.441406 Z M 349.46875 385.042969 " fill-opacity="1" fill-rule="nonzero"/><path fill="#90e0ef" d="M 190.101562 105.582031 L 190.558594 107.0625 L 192.152344 107.0625 L 190.898438 107.972656 L 191.355469 109.453125 L 190.101562 108.539062 L 188.847656 109.453125 L 189.304688 107.972656 L 188.050781 107.0625 L 189.644531 107.0625 Z M 190.101562 105.582031 " fill-opacity="1" fill-rule="nonzero"/><path fill="#90e0ef" d="M 237.910156 238.992188 L 239.164062 242.636719 L 243.035156 242.636719 L 239.847656 245.027344 L 241.097656 248.667969 L 237.910156 246.394531 L 234.722656 248.667969 L 235.976562 245.027344 L 232.789062 242.636719 L 236.660156 242.636719 Z M 237.910156 238.992188 " fill-opacity="1" fill-rule="nonzero"/><path fill="#90e0ef" d="M 495.175781 175.132812 L 495.859375 177.296875 L 498.25 177.296875 L 496.3125 178.660156 L 497.109375 180.9375 L 495.175781 179.574219 L 493.238281 180.9375 L 494.035156 178.660156 L 492.101562 177.296875 L 494.492188 177.296875 Z M 495.175781 175.132812 " fill-opacity="1" fill-rule="nonzero"/><path fill="#90e0ef" d="M 409.800781 165.914062 L 410.253906 167.390625 L 411.847656 167.390625 L 410.597656 168.304688 L 411.050781 169.78125 L 409.800781 168.871094 L 408.546875 169.78125 L 409.003906 168.304688 L 407.75 167.390625 L 409.34375 167.390625 Z M 409.800781 165.914062 " fill-opacity="1" fill-rule="nonzero"/><path fill="#90e0ef" d="M 695.523438 407.46875 L 696.773438 411.109375 L 700.644531 411.109375 L 697.457031 413.5 L 698.707031 417.144531 L 695.523438 414.867188 L 692.335938 417.144531 L 693.585938 413.5 L 690.398438 411.109375 L 694.269531 411.109375 Z M 695.523438 407.46875 " fill-opacity="1" fill-rule="nonzero"/><path fill="#90e0ef" d="M 759.269531 346.453125 L 762.113281 355.332031 L 771.5625 355.332031 L 763.933594 360.796875 L 766.894531 369.789062 L 759.269531 364.210938 L 751.640625 369.789062 L 754.601562 360.796875 L 746.972656 355.332031 L 756.421875 355.332031 Z M 759.269531 346.453125 " fill-opacity="1" fill-rule="nonzero"/><path fill="#90e0ef" d="M 657.957031 263.125 L 660.121094 269.84375 L 667.175781 269.84375 L 661.484375 273.941406 L 663.648438 280.65625 L 657.957031 276.445312 L 652.265625 280.65625 L 654.429688 273.941406 L 648.734375 269.84375 L 655.792969 269.84375 Z M 657.957031 263.125 " fill-opacity="1" fill-rule="nonzero"/><path fill="#90e0ef" d="M 828.707031 131.195312 L 831.324219 139.390625 L 839.976562 139.390625 L 833.03125 144.398438 L 835.652344 152.59375 L 828.707031 147.585938 L 821.761719 152.59375 L 824.382812 144.398438 L 817.4375 139.390625 L 826.089844 139.390625 Z M 828.707031 131.195312 " fill-opacity="1" fill-rule="nonzero"/><path fill="#90e0ef" d="M 46.671875 443.78125 L 47.582031 446.738281 L 50.769531 446.738281 L 48.265625 448.5625 L 49.175781 451.632812 L 46.671875 449.699219 L 44.167969 451.632812 L 45.078125 448.5625 L 42.574219 446.738281 L 45.761719 446.738281 Z M 46.671875 443.78125 " fill-opacity="1" fill-rule="nonzero"/><path fill="#90e0ef" d="M 777.480469 20.207031 L 777.710938 20.890625 L 778.507812 20.890625 L 777.824219 21.34375 L 778.164062 22.140625 L 777.480469 21.6875 L 776.796875 22.140625 L 777.140625 21.34375 L 776.457031 20.890625 L 777.253906 20.890625 Z M 777.480469 20.207031 " fill-opacity="1" fill-rule="nonzero"/><path fill="#90e0ef" d="M 549.816406 97.839844 L 551.066406 101.484375 L 554.9375 101.484375 L 551.75 103.875 L 553.003906 107.515625 L 549.816406 105.238281 L 546.628906 107.515625 L 547.878906 103.875 L 544.691406 101.484375 L 548.5625 101.484375 Z M 549.816406 97.839844 " fill-opacity="1" fill-rule="nonzero"/><path fill="#90e0ef" d="M 727.394531 367.625 L 728.875 372.179688 L 733.542969 372.179688 L 729.785156 374.910156 L 731.152344 379.351562 L 727.394531 376.617188 L 723.636719 379.351562 L 725.003906 374.910156 L 721.246094 372.179688 L 725.914062 372.179688 Z M 727.394531 367.625 " fill-opacity="1" fill-rule="nonzero"/><path fill="#90e0ef" d="M 245.878906 504.113281 L 246.789062 507.070312 L 249.976562 507.070312 L 247.472656 508.890625 L 248.382812 511.964844 L 245.878906 510.03125 L 243.375 511.964844 L 244.285156 508.890625 L 241.78125 507.070312 L 244.96875 507.070312 Z M 245.878906 504.113281 " fill-opacity="1" fill-rule="nonzero"/><path fill="#90e0ef" d="M 328.976562 161.359375 L 329.207031 162.042969 L 330.003906 162.042969 L 329.320312 162.496094 L 329.660156 163.292969 L 328.976562 162.839844 L 328.296875 163.292969 L 328.636719 162.496094 L 327.953125 162.042969 L 328.75 162.042969 Z M 328.976562 161.359375 " fill-opacity="1" fill-rule="nonzero"/><path fill="#90e0ef" d="M 272.0625 102.28125 L 272.746094 104.441406 L 275.136719 104.441406 L 273.199219 105.808594 L 273.996094 108.085938 L 272.0625 106.71875 L 270.125 108.085938 L 270.921875 105.808594 L 268.988281 104.441406 L 271.378906 104.441406 Z M 272.0625 102.28125 " fill-opacity="1" fill-rule="nonzero"/><path fill="#90e0ef" d="M 525.910156 281.226562 L 527.617188 286.460938 L 533.082031 286.460938 L 528.640625 289.648438 L 530.347656 294.773438 L 525.910156 291.585938 L 521.46875 294.773438 L 523.179688 289.648438 L 518.738281 286.460938 L 524.203125 286.460938 Z M 525.910156 281.226562 " fill-opacity="1" fill-rule="nonzero"/><path fill="#90e0ef" d="M 232.21875 294.542969 L 232.675781 296.023438 L 234.269531 296.023438 L 233.015625 296.933594 L 233.472656 298.414062 L 232.21875 297.503906 L 230.96875 298.414062 L 231.421875 296.933594 L 230.171875 296.023438 L 231.765625 296.023438 Z M 232.21875 294.542969 " fill-opacity="1" fill-rule="nonzero"/><path fill="#90e0ef" d="M 961.890625 242.75 L 964.28125 250.148438 L 972.136719 250.148438 L 965.761719 254.703125 L 968.152344 262.101562 L 961.890625 257.546875 L 955.628906 262.101562 L 958.019531 254.703125 L 951.648438 250.148438 L 959.5 250.148438 Z M 961.890625 242.75 " fill-opacity="1" fill-rule="nonzero"/><path fill="#90e0ef" d="M 1007.425781 148.382812 L 1010.269531 157.261719 L 1019.71875 157.261719 L 1012.09375 162.726562 L 1015.050781 171.71875 L 1007.425781 166.140625 L 999.796875 171.71875 L 1002.757812 162.726562 L 995.128906 157.261719 L 1004.578125 157.261719 Z M 1007.425781 148.382812 " fill-opacity="1" fill-rule="nonzero"/><path fill="#90e0ef" d="M 375.648438 210.761719 L 377.8125 217.480469 L 384.871094 217.480469 L 379.179688 221.578125 L 381.339844 228.292969 L 375.648438 224.082031 L 369.957031 228.292969 L 372.121094 221.578125 L 366.429688 217.480469 L 373.488281 217.480469 Z M 375.648438 210.761719 " fill-opacity="1" fill-rule="nonzero"/><path fill="#90e0ef" d="M 496.3125 43.199219 L 497.566406 46.84375 L 501.4375 46.84375 L 498.25 49.234375 L 499.5 52.875 L 496.3125 50.597656 L 493.125 52.875 L 494.378906 49.234375 L 491.191406 46.84375 L 495.0625 46.84375 Z M 496.3125 43.199219 " fill-opacity="1" fill-rule="nonzero"/><path fill="#90e0ef" d="M 309.625 420.101562 L 311.335938 425.339844 L 316.796875 425.339844 L 312.359375 428.527344 L 314.066406 433.648438 L 309.625 430.460938 L 305.1875 433.648438 L 306.894531 428.527344 L 302.457031 425.339844 L 307.917969 425.339844 Z M 309.625 420.101562 " fill-opacity="1" fill-rule="nonzero"/><path fill="#90e0ef" d="M 942.539062 355.21875 L 944.246094 360.453125 L 949.710938 360.453125 L 945.273438 363.640625 L 946.980469 368.761719 L 942.539062 365.578125 L 938.101562 368.761719 L 939.808594 363.640625 L 935.367188 360.453125 L 940.832031 360.453125 Z M 942.539062 355.21875 " fill-opacity="1" fill-rule="nonzero"/><path fill="#90e0ef" d="M 816.183594 313.894531 L 816.414062 314.578125 L 817.210938 314.578125 L 816.527344 315.035156 L 816.867188 315.832031 L 816.183594 315.375 L 815.5 315.832031 L 815.84375 315.035156 L 815.160156 314.578125 L 815.957031 314.578125 Z M 816.183594 313.894531 " fill-opacity="1" fill-rule="nonzero"/><path fill="#90e0ef" d="M 733.085938 483.621094 L 733.996094 486.582031 L 737.183594 486.582031 L 734.679688 488.402344 L 735.589844 491.476562 L 733.085938 489.539062 L 730.582031 491.476562 L 731.492188 488.402344 L 728.988281 486.582031 L 732.175781 486.582031 Z M 733.085938 483.621094 " fill-opacity="1" fill-rule="nonzero"/><path fill="#90e0ef" d="M 294.828125 29.539062 L 296.082031 33.183594 L 299.949219 33.183594 L 296.761719 35.574219 L 298.015625 39.214844 L 294.828125 36.941406 L 291.640625 39.214844 L 292.894531 35.574219 L 289.707031 33.183594 L 293.574219 33.183594 Z M 294.828125 29.539062 " fill-opacity="1" fill-rule="nonzero"/><path fill="#90e0ef" d="M 570.304688 426.933594 L 572.238281 432.964844 L 578.5 432.964844 L 573.378906 436.609375 L 575.3125 442.527344 L 570.304688 438.886719 L 565.296875 442.527344 L 567.230469 436.609375 L 562.109375 432.964844 L 568.371094 432.964844 Z M 570.304688 426.933594 " fill-opacity="1" fill-rule="nonzero"/><path fill="#90e0ef" d="M 865.132812 440.707031 L 867.296875 447.421875 L 874.355469 447.421875 L 868.660156 451.519531 L 870.824219 458.238281 L 865.132812 454.023438 L 859.441406 458.238281 L 861.605469 451.519531 L 855.914062 447.421875 L 862.96875 447.421875 Z M 865.132812 440.707031 " fill-opacity="1" fill-rule="nonzero"/><path fill="#90e0ef" d="M 52.363281 38.648438 L 53.84375 43.199219 L 58.511719 43.199219 L 54.753906 45.933594 L 56.121094 50.371094 L 52.363281 47.640625 L 48.605469 50.371094 L 49.972656 45.933594 L 46.214844 43.199219 L 50.882812 43.199219 Z M 52.363281 38.648438 " fill-opacity="1" fill-rule="nonzero"/><path fill="#90e0ef" d="M 878.792969 83.042969 L 880.046875 86.683594 L 883.914062 86.683594 L 880.726562 89.074219 L 881.980469 92.71875 L 878.792969 90.441406 L 875.605469 92.71875 L 876.859375 89.074219 L 873.671875 86.683594 L 877.542969 86.683594 Z M 878.792969 83.042969 " fill-opacity="1" fill-rule="nonzero"/><path fill="#90e0ef" d="M 511.113281 75.984375 L 511.339844 76.667969 L 512.136719 76.667969 L 511.453125 77.121094 L 511.792969 77.917969 L 511.113281 77.464844 L 510.429688 77.917969 L 510.769531 77.121094 L 510.085938 76.667969 L 510.882812 76.667969 Z M 511.113281 75.984375 " fill-opacity="1" fill-rule="nonzero"/><path fill="#90e0ef" d="M 934.570312 127.4375 L 936.050781 131.992188 L 940.71875 131.992188 L 936.960938 134.722656 L 938.328125 139.160156 L 934.570312 136.429688 L 930.816406 139.160156 L 932.179688 134.722656 L 928.425781 131.992188 L 933.089844 131.992188 Z M 934.570312 127.4375 " fill-opacity="1" fill-rule="nonzero"/><path fill="#90e0ef" d="M 569.167969 175.019531 L 569.621094 176.5 L 571.214844 176.5 L 569.964844 177.410156 L 570.417969 178.890625 L 569.167969 177.980469 L 567.914062 178.890625 L 568.371094 177.410156 L 567.117188 176.5 L 568.710938 176.5 Z M 569.167969 175.019531 " fill-opacity="1" fill-rule="nonzero"/><path fill="#90e0ef" d="M 417.769531 118.101562 L 417.996094 118.785156 L 418.792969 118.785156 L 418.109375 119.242188 L 418.453125 120.039062 L 417.769531 119.582031 L 417.085938 120.039062 L 417.425781 119.242188 L 416.742188 118.785156 L 417.539062 118.785156 Z M 417.769531 118.101562 " fill-opacity="1" fill-rule="nonzero"/><path fill="#90e0ef" d="M 795.695312 439.339844 L 796.945312 442.984375 L 800.816406 442.984375 L 797.628906 445.375 L 798.882812 449.015625 L 795.695312 446.738281 L 792.507812 449.015625 L 793.757812 445.375 L 790.574219 442.984375 L 794.441406 442.984375 Z M 795.695312 439.339844 " fill-opacity="1" fill-rule="nonzero"/><path fill="#90e0ef" d="M 690.96875 241.15625 L 691.652344 243.320312 L 694.042969 243.320312 L 692.105469 244.683594 L 692.902344 246.960938 L 690.96875 245.597656 L 689.03125 246.960938 L 689.828125 244.683594 L 687.894531 243.320312 L 690.285156 243.320312 Z M 690.96875 241.15625 " fill-opacity="1" fill-rule="nonzero"/><path fill="#90e0ef" d="M 336.945312 84.636719 L 339.792969 93.515625 L 349.242188 93.515625 L 341.613281 98.980469 L 344.574219 107.972656 L 336.945312 102.394531 L 329.320312 107.972656 L 332.28125 98.980469 L 324.652344 93.515625 L 334.101562 93.515625 Z M 336.945312 84.636719 " fill-opacity="1" fill-rule="nonzero"/><path fill="#90e0ef" d="M 257.261719 425.679688 L 258.742188 430.234375 L 263.410156 430.234375 L 259.652344 432.964844 L 261.019531 437.40625 L 257.261719 434.671875 L 253.507812 437.40625 L 254.871094 432.964844 L 251.117188 430.234375 L 255.785156 430.234375 Z M 257.261719 425.679688 " fill-opacity="1" fill-rule="nonzero"/><path fill="#90e0ef" d="M 889.039062 234.78125 L 891.429688 242.179688 L 899.28125 242.179688 L 892.910156 246.734375 L 895.300781 254.132812 L 889.039062 249.582031 L 882.777344 254.132812 L 885.167969 246.734375 L 878.792969 242.179688 L 886.648438 242.179688 Z M 889.039062 234.78125 " fill-opacity="1" fill-rule="nonzero"/><path fill="#90e0ef" d="M 769.511719 194.484375 L 770.425781 197.445312 L 773.609375 197.445312 L 771.105469 199.265625 L 772.019531 202.339844 L 769.511719 200.402344 L 767.007812 202.339844 L 767.917969 199.265625 L 765.414062 197.445312 L 768.601562 197.445312 Z M 769.511719 194.484375 " fill-opacity="1" fill-rule="nonzero"/><path fill="#90e0ef" d="M 185.546875 294.773438 L 186.800781 298.414062 L 190.671875 298.414062 L 187.484375 300.804688 L 188.734375 304.449219 L 185.546875 302.171875 L 182.359375 304.449219 L 183.613281 300.804688 L 180.425781 298.414062 L 184.296875 298.414062 Z M 185.546875 294.773438 " fill-opacity="1" fill-rule="nonzero"/><path fill="#90e0ef" d="M 48.949219 77.578125 L 51.109375 84.292969 L 58.167969 84.292969 L 52.476562 88.390625 L 54.640625 95.109375 L 48.949219 90.898438 L 43.257812 95.109375 L 45.417969 88.390625 L 39.726562 84.292969 L 46.785156 84.292969 Z M 48.949219 77.578125 " fill-opacity="1" fill-rule="nonzero"/><path fill="#90e0ef" d="M 918.636719 320.953125 L 919.886719 324.597656 L 923.757812 324.597656 L 920.570312 326.988281 L 921.820312 330.628906 L 918.636719 328.351562 L 915.449219 330.628906 L 916.699219 326.988281 L 913.511719 324.597656 L 917.382812 324.597656 Z M 918.636719 320.953125 " fill-opacity="1" fill-rule="nonzero"/><path fill="#90e0ef" d="M 830.984375 196.648438 L 831.4375 198.128906 L 833.03125 198.128906 L 831.78125 199.039062 L 832.234375 200.519531 L 830.984375 199.605469 L 829.730469 200.519531 L 830.1875 199.039062 L 828.933594 198.128906 L 830.527344 198.128906 Z M 830.984375 196.648438 " fill-opacity="1" fill-rule="nonzero"/></g></g></g></svg>