<svg xmlns="http://www.w3.org/2000/svg" xmlns:xlink="http://www.w3.org/1999/xlink" width="1366" zoomAndPan="magnify" viewBox="0 0 1024.5 576" height="768" preserveAspectRatio="xMidYMid meet" version="1.0"><defs><clipPath id="8dfec45e66"><path d="M 0 0.140625 L 1024 0.140625 L 1024 575.859375 L 0 575.859375 Z M 0 0.140625 " clip-rule="nonzero"/></clipPath><clipPath id="e1f8203f17"><path d="M 680 32 L 833 32 L 833 199 L 680 199 Z M 680 32 " clip-rule="nonzero"/></clipPath><clipPath id="5b96f6ae74"><path d="M 692.589844 20.308594 L 844.300781 45.277344 L 817.992188 205.128906 L 666.285156 180.160156 Z M 692.589844 20.308594 " clip-rule="nonzero"/></clipPath><clipPath id="85c2ff871b"><path d="M 692.589844 20.308594 L 844.300781 45.277344 L 817.992188 205.128906 L 666.285156 180.160156 Z M 692.589844 20.308594 " clip-rule="nonzero"/></clipPath><clipPath id="f5b1c58735"><path d="M 723 84 L 790 84 L 790 122 L 723 122 Z M 723 84 " clip-rule="nonzero"/></clipPath><clipPath id="072b7d7058"><path d="M 692.589844 20.308594 L 844.300781 45.277344 L 817.992188 205.128906 L 666.285156 180.160156 Z M 692.589844 20.308594 " clip-rule="nonzero"/></clipPath><clipPath id="adfbb03ccf"><path d="M 692.589844 20.308594 L 844.300781 45.277344 L 817.992188 205.128906 L 666.285156 180.160156 Z M 692.589844 20.308594 " clip-rule="nonzero"/></clipPath><clipPath id="4445ab56a4"><path d="M 707 106 L 801 106 L 801 138 L 707 138 Z M 707 106 " clip-rule="nonzero"/></clipPath><clipPath id="ce9d9da3a3"><path d="M 692.589844 20.308594 L 844.300781 45.277344 L 817.992188 205.128906 L 666.285156 180.160156 Z M 692.589844 20.308594 " clip-rule="nonzero"/></clipPath><clipPath id="3ac239987e"><path d="M 692.589844 20.308594 L 844.300781 45.277344 L 817.992188 205.128906 L 666.285156 180.160156 Z M 692.589844 20.308594 " clip-rule="nonzero"/></clipPath><clipPath id="5c2082aca9"><path d="M 721 114 L 788 114 L 788 139 L 721 139 Z M 721 114 " clip-rule="nonzero"/></clipPath><clipPath id="5ce68d85a4"><path d="M 692.589844 20.308594 L 844.300781 45.277344 L 817.992188 205.128906 L 666.285156 180.160156 Z M 692.589844 20.308594 " clip-rule="nonzero"/></clipPath><clipPath id="746f90fd34"><path d="M 692.589844 20.308594 L 844.300781 45.277344 L 817.992188 205.128906 L 666.285156 180.160156 Z M 692.589844 20.308594 " clip-rule="nonzero"/></clipPath><clipPath id="69a5a435fa"><path d="M 729 90 L 784 90 L 784 116 L 729 116 Z M 729 90 " clip-rule="nonzero"/></clipPath><clipPath id="4d07ff00da"><path d="M 692.589844 20.308594 L 844.300781 45.277344 L 817.992188 205.128906 L 666.285156 180.160156 Z M 692.589844 20.308594 " clip-rule="nonzero"/></clipPath><clipPath id="56a36a6174"><path d="M 692.589844 20.308594 L 844.300781 45.277344 L 817.992188 205.128906 L 666.285156 180.160156 Z M 692.589844 20.308594 " clip-rule="nonzero"/></clipPath><clipPath id="7d201cff22"><path d="M 837 44 L 932 44 L 932 162 L 837 162 Z M 837 44 " clip-rule="nonzero"/></clipPath><clipPath id="c6be15e9c3"><path d="M 826.402344 61.320312 L 900.03125 33.386719 L 942.59375 145.585938 L 868.964844 173.515625 Z M 826.402344 61.320312 " clip-rule="nonzero"/></clipPath><clipPath id="519de9a995"><path d="M 826.402344 61.320312 L 900.03125 33.386719 L 942.59375 145.585938 L 868.964844 173.515625 Z M 826.402344 61.320312 " clip-rule="nonzero"/></clipPath><clipPath id="776d6b9c71"><path d="M 848 71 L 908 71 L 908 103 L 848 103 Z M 848 71 " clip-rule="nonzero"/></clipPath><clipPath id="f53133fd8a"><path d="M 826.402344 61.320312 L 900.03125 33.386719 L 942.59375 145.585938 L 868.964844 173.515625 Z M 826.402344 61.320312 " clip-rule="nonzero"/></clipPath><clipPath id="c33ffdbfac"><path d="M 826.402344 61.320312 L 900.03125 33.386719 L 942.59375 145.585938 L 868.964844 173.515625 Z M 826.402344 61.320312 " clip-rule="nonzero"/></clipPath><clipPath id="99d490e703"><path d="M 854 65 L 894 65 L 894 93 L 854 93 Z M 854 65 " clip-rule="nonzero"/></clipPath><clipPath id="2356efb8a4"><path d="M 826.402344 61.320312 L 900.03125 33.386719 L 942.59375 145.585938 L 868.964844 173.515625 Z M 826.402344 61.320312 " clip-rule="nonzero"/></clipPath><clipPath id="6cf2a90049"><path d="M 826.402344 61.320312 L 900.03125 33.386719 L 942.59375 145.585938 L 868.964844 173.515625 Z M 826.402344 61.320312 " clip-rule="nonzero"/></clipPath><clipPath id="c648b620b7"><path d="M 804 173 L 942 173 L 942 311 L 804 311 Z M 804 173 " clip-rule="nonzero"/></clipPath><clipPath id="26c0ba40f6"><path d="M 836.183594 143.515625 L 971.28125 205.164062 L 909.636719 340.265625 L 774.535156 278.617188 Z M 836.183594 143.515625 " clip-rule="nonzero"/></clipPath><clipPath id="99739a26b6"><path d="M 836.183594 143.515625 L 971.28125 205.164062 L 909.636719 340.265625 L 774.535156 278.617188 Z M 836.183594 143.515625 " clip-rule="nonzero"/></clipPath><clipPath id="b0e6e7723d"><path d="M 844 214 L 908 214 L 908 256 L 844 256 Z M 844 214 " clip-rule="nonzero"/></clipPath><clipPath id="273636c056"><path d="M 836.183594 143.515625 L 971.28125 205.164062 L 909.636719 340.265625 L 774.535156 278.617188 Z M 836.183594 143.515625 " clip-rule="nonzero"/></clipPath><clipPath id="50f25f9847"><path d="M 836.183594 143.515625 L 971.28125 205.164062 L 909.636719 340.265625 L 774.535156 278.617188 Z M 836.183594 143.515625 " clip-rule="nonzero"/></clipPath><clipPath id="18bda68017"><path d="M 828 226 L 911 226 L 911 272 L 828 272 Z M 828 226 " clip-rule="nonzero"/></clipPath><clipPath id="cfd15bbc18"><path d="M 836.183594 143.515625 L 971.28125 205.164062 L 909.636719 340.265625 L 774.535156 278.617188 Z M 836.183594 143.515625 " clip-rule="nonzero"/></clipPath><clipPath id="0abc1c3238"><path d="M 836.183594 143.515625 L 971.28125 205.164062 L 909.636719 340.265625 L 774.535156 278.617188 Z M 836.183594 143.515625 " clip-rule="nonzero"/></clipPath><clipPath id="d8d79d4d76"><path d="M 849 218 L 903 218 L 903 251 L 849 251 Z M 849 218 " clip-rule="nonzero"/></clipPath><clipPath id="29c328a5e9"><path d="M 836.183594 143.515625 L 971.28125 205.164062 L 909.636719 340.265625 L 774.535156 278.617188 Z M 836.183594 143.515625 " clip-rule="nonzero"/></clipPath><clipPath id="c61986e32b"><path d="M 836.183594 143.515625 L 971.28125 205.164062 L 909.636719 340.265625 L 774.535156 278.617188 Z M 836.183594 143.515625 " clip-rule="nonzero"/></clipPath><clipPath id="fb26641ac3"><path d="M 857 236 L 887 236 L 887 255 L 857 255 Z M 857 236 " clip-rule="nonzero"/></clipPath><clipPath id="9f35c25a9a"><path d="M 836.183594 143.515625 L 971.28125 205.164062 L 909.636719 340.265625 L 774.535156 278.617188 Z M 836.183594 143.515625 " clip-rule="nonzero"/></clipPath><clipPath id="0c3f4022c1"><path d="M 836.183594 143.515625 L 971.28125 205.164062 L 909.636719 340.265625 L 774.535156 278.617188 Z M 836.183594 143.515625 " clip-rule="nonzero"/></clipPath><clipPath id="f945fef17c"><path d="M 752 398.003906 L 951 398.003906 L 951 503.753906 L 752 503.753906 Z M 752 398.003906 " clip-rule="nonzero"/></clipPath><clipPath id="1282d9b558"><path d="M 602 84 L 668 84 L 668 149 L 602 149 Z M 602 84 " clip-rule="nonzero"/></clipPath><clipPath id="b4861e0d56"><path d="M 611.183594 72.800781 L 678.761719 92.882812 L 658.679688 160.460938 L 591.097656 140.378906 Z M 611.183594 72.800781 " clip-rule="nonzero"/></clipPath><clipPath id="7232b01405"><path d="M 611.183594 72.800781 L 678.761719 92.882812 L 658.679688 160.460938 L 591.097656 140.378906 Z M 611.183594 72.800781 " clip-rule="nonzero"/></clipPath><clipPath id="be629b938f"><path d="M 617 98 L 656 98 L 656 124 L 617 124 Z M 617 98 " clip-rule="nonzero"/></clipPath><clipPath id="814a8d2a8f"><path d="M 611.183594 72.800781 L 678.761719 92.882812 L 658.679688 160.460938 L 591.097656 140.378906 Z M 611.183594 72.800781 " clip-rule="nonzero"/></clipPath><clipPath id="5727412791"><path d="M 611.183594 72.800781 L 678.761719 92.882812 L 658.679688 160.460938 L 591.097656 140.378906 Z M 611.183594 72.800781 " clip-rule="nonzero"/></clipPath><clipPath id="22f81f52fa"><path d="M 621 102 L 652 102 L 652 120 L 621 120 Z M 621 102 " clip-rule="nonzero"/></clipPath><clipPath id="6c5f6e77ab"><path d="M 611.183594 72.800781 L 678.761719 92.882812 L 658.679688 160.460938 L 591.097656 140.378906 Z M 611.183594 72.800781 " clip-rule="nonzero"/></clipPath><clipPath id="39874e7097"><path d="M 611.183594 72.800781 L 678.761719 92.882812 L 658.679688 160.460938 L 591.097656 140.378906 Z M 611.183594 72.800781 " clip-rule="nonzero"/></clipPath><clipPath id="38a6d67dcb"><path d="M 606 109 L 660 109 L 660 134 L 606 134 Z M 606 109 " clip-rule="nonzero"/></clipPath><clipPath id="ae79a89da9"><path d="M 611.183594 72.800781 L 678.761719 92.882812 L 658.679688 160.460938 L 591.097656 140.378906 Z M 611.183594 72.800781 " clip-rule="nonzero"/></clipPath><clipPath id="6407421374"><path d="M 611.183594 72.800781 L 678.761719 92.882812 L 658.679688 160.460938 L 591.097656 140.378906 Z M 611.183594 72.800781 " clip-rule="nonzero"/></clipPath><clipPath id="8f80a465db"><path d="M 616 117 L 651 117 L 651 133 L 616 133 Z M 616 117 " clip-rule="nonzero"/></clipPath><clipPath id="e4bec6a2cf"><path d="M 611.183594 72.800781 L 678.761719 92.882812 L 658.679688 160.460938 L 591.097656 140.378906 Z M 611.183594 72.800781 " clip-rule="nonzero"/></clipPath><clipPath id="e34c7ed64f"><path d="M 611.183594 72.800781 L 678.761719 92.882812 L 658.679688 160.460938 L 591.097656 140.378906 Z M 611.183594 72.800781 " clip-rule="nonzero"/></clipPath><clipPath id="26ee5a2d68"><path d="M 622 203 L 815 203 L 815 402 L 622 402 Z M 622 203 " clip-rule="nonzero"/></clipPath><clipPath id="2677843310"><path d="M 670.054688 164.695312 L 872.144531 236.59375 L 809.796875 411.832031 L 607.707031 339.933594 Z M 670.054688 164.695312 " clip-rule="nonzero"/></clipPath><clipPath id="5f72680db6"><path d="M 670.054688 164.695312 L 872.144531 236.59375 L 809.796875 411.832031 L 607.707031 339.933594 Z M 670.054688 164.695312 " clip-rule="nonzero"/></clipPath><clipPath id="f85df36144"><path d="M 685 277 L 780 277 L 780 341 L 685 341 Z M 685 277 " clip-rule="nonzero"/></clipPath><clipPath id="91b85152fc"><path d="M 670.054688 164.695312 L 872.144531 236.59375 L 809.796875 411.832031 L 607.707031 339.933594 Z M 670.054688 164.695312 " clip-rule="nonzero"/></clipPath><clipPath id="a87a76d8f0"><path d="M 670.054688 164.695312 L 872.144531 236.59375 L 809.796875 411.832031 L 607.707031 339.933594 Z M 670.054688 164.695312 " clip-rule="nonzero"/></clipPath><clipPath id="bdef2fedce"><path d="M 658 303 L 788 303 L 788 368 L 658 368 Z M 658 303 " clip-rule="nonzero"/></clipPath><clipPath id="2f80377228"><path d="M 670.054688 164.695312 L 872.144531 236.59375 L 809.796875 411.832031 L 607.707031 339.933594 Z M 670.054688 164.695312 " clip-rule="nonzero"/></clipPath><clipPath id="335b9025e7"><path d="M 670.054688 164.695312 L 872.144531 236.59375 L 809.796875 411.832031 L 607.707031 339.933594 Z M 670.054688 164.695312 " clip-rule="nonzero"/></clipPath><clipPath id="68b36a0d66"><path d="M 694 286 L 771 286 L 771 343 L 694 343 Z M 694 286 " clip-rule="nonzero"/></clipPath><clipPath id="3789068242"><path d="M 670.054688 164.695312 L 872.144531 236.59375 L 809.796875 411.832031 L 607.707031 339.933594 Z M 670.054688 164.695312 " clip-rule="nonzero"/></clipPath><clipPath id="70b79571cc"><path d="M 670.054688 164.695312 L 872.144531 236.59375 L 809.796875 411.832031 L 607.707031 339.933594 Z M 670.054688 164.695312 " clip-rule="nonzero"/></clipPath><clipPath id="e71d4ee0b1"><path d="M 704 260 L 782 260 L 782 294 L 704 294 Z M 704 260 " clip-rule="nonzero"/></clipPath><clipPath id="36c014ce28"><path d="M 670.054688 164.695312 L 872.144531 236.59375 L 809.796875 411.832031 L 607.707031 339.933594 Z M 670.054688 164.695312 " clip-rule="nonzero"/></clipPath><clipPath id="d5e9882b4b"><path d="M 670.054688 164.695312 L 872.144531 236.59375 L 809.796875 411.832031 L 607.707031 339.933594 Z M 670.054688 164.695312 " clip-rule="nonzero"/></clipPath><clipPath id="d49d61f7d6"><path d="M 826 318 L 895 318 L 895 387 L 826 387 Z M 826 318 " clip-rule="nonzero"/></clipPath><clipPath id="3a9562b09a"><path d="M 815.269531 325.160156 L 888.183594 307.601562 L 905.742188 380.515625 L 832.828125 398.078125 Z M 815.269531 325.160156 " clip-rule="nonzero"/></clipPath><clipPath id="cc019445cf"><path d="M 815.269531 325.160156 L 888.183594 307.601562 L 905.742188 380.515625 L 832.828125 398.078125 Z M 815.269531 325.160156 " clip-rule="nonzero"/></clipPath><clipPath id="418aec82c9"><path d="M 838 334 L 880 334 L 880 360 L 838 360 Z M 838 334 " clip-rule="nonzero"/></clipPath><clipPath id="ab53b7e82f"><path d="M 815.269531 325.160156 L 888.183594 307.601562 L 905.742188 380.515625 L 832.828125 398.078125 Z M 815.269531 325.160156 " clip-rule="nonzero"/></clipPath><clipPath id="33c393a105"><path d="M 815.269531 325.160156 L 888.183594 307.601562 L 905.742188 380.515625 L 832.828125 398.078125 Z M 815.269531 325.160156 " clip-rule="nonzero"/></clipPath><clipPath id="b1ac03d145"><path d="M 842 338 L 876 338 L 876 356 L 842 356 Z M 842 338 " clip-rule="nonzero"/></clipPath><clipPath id="d66b153fa7"><path d="M 815.269531 325.160156 L 888.183594 307.601562 L 905.742188 380.515625 L 832.828125 398.078125 Z M 815.269531 325.160156 " clip-rule="nonzero"/></clipPath><clipPath id="e079c28355"><path d="M 815.269531 325.160156 L 888.183594 307.601562 L 905.742188 380.515625 L 832.828125 398.078125 Z M 815.269531 325.160156 " clip-rule="nonzero"/></clipPath><clipPath id="73fed4b851"><path d="M 833 347 L 891 347 L 891 370 L 833 370 Z M 833 347 " clip-rule="nonzero"/></clipPath><clipPath id="679fd5ef7d"><path d="M 815.269531 325.160156 L 888.183594 307.601562 L 905.742188 380.515625 L 832.828125 398.078125 Z M 815.269531 325.160156 " clip-rule="nonzero"/></clipPath><clipPath id="e677ebb0d5"><path d="M 815.269531 325.160156 L 888.183594 307.601562 L 905.742188 380.515625 L 832.828125 398.078125 Z M 815.269531 325.160156 " clip-rule="nonzero"/></clipPath><clipPath id="f65f82824f"><path d="M 844 354 L 881 354 L 881 369 L 844 369 Z M 844 354 " clip-rule="nonzero"/></clipPath><clipPath id="5d68b80daf"><path d="M 815.269531 325.160156 L 888.183594 307.601562 L 905.742188 380.515625 L 832.828125 398.078125 Z M 815.269531 325.160156 " clip-rule="nonzero"/></clipPath><clipPath id="96135a2f1e"><path d="M 815.269531 325.160156 L 888.183594 307.601562 L 905.742188 380.515625 L 832.828125 398.078125 Z M 815.269531 325.160156 " clip-rule="nonzero"/></clipPath><clipPath id="b176b31852"><path d="M 589 163 L 685 163 L 685 259 L 589 259 Z M 589 163 " clip-rule="nonzero"/></clipPath><clipPath id="a47d1ea5ca"><path d="M 563.121094 188.316406 L 660.039062 137.359375 L 710.996094 234.277344 L 614.078125 285.234375 Z M 563.121094 188.316406 " clip-rule="nonzero"/></clipPath><clipPath id="4e03e48ae5"><path d="M 563.121094 188.316406 L 660.039062 137.359375 L 710.996094 234.277344 L 614.078125 285.234375 Z M 563.121094 188.316406 " clip-rule="nonzero"/></clipPath><clipPath id="a6b88871a8"><path d="M 611 189 L 658 189 L 658 224 L 611 224 Z M 611 189 " clip-rule="nonzero"/></clipPath><clipPath id="72dca7dcc8"><path d="M 563.121094 188.316406 L 660.039062 137.359375 L 710.996094 234.277344 L 614.078125 285.234375 Z M 563.121094 188.316406 " clip-rule="nonzero"/></clipPath><clipPath id="b9448ff056"><path d="M 563.121094 188.316406 L 660.039062 137.359375 L 710.996094 234.277344 L 614.078125 285.234375 Z M 563.121094 188.316406 " clip-rule="nonzero"/></clipPath><clipPath id="3531d55cc7"><path d="M 610 197 L 670 197 L 670 235 L 610 235 Z M 610 197 " clip-rule="nonzero"/></clipPath><clipPath id="82720caea6"><path d="M 563.121094 188.316406 L 660.039062 137.359375 L 710.996094 234.277344 L 614.078125 285.234375 Z M 563.121094 188.316406 " clip-rule="nonzero"/></clipPath><clipPath id="1d7b6623b7"><path d="M 563.121094 188.316406 L 660.039062 137.359375 L 710.996094 234.277344 L 614.078125 285.234375 Z M 563.121094 188.316406 " clip-rule="nonzero"/></clipPath><clipPath id="446687500d"><path d="M 615 193 L 654 193 L 654 220 L 615 220 Z M 615 193 " clip-rule="nonzero"/></clipPath><clipPath id="3d839409b0"><path d="M 563.121094 188.316406 L 660.039062 137.359375 L 710.996094 234.277344 L 614.078125 285.234375 Z M 563.121094 188.316406 " clip-rule="nonzero"/></clipPath><clipPath id="6d07452a67"><path d="M 563.121094 188.316406 L 660.039062 137.359375 L 710.996094 234.277344 L 614.078125 285.234375 Z M 563.121094 188.316406 " clip-rule="nonzero"/></clipPath><clipPath id="21e8cfeef2"><path d="M 627 206 L 649 206 L 649 221 L 627 221 Z M 627 206 " clip-rule="nonzero"/></clipPath><clipPath id="027b3332b0"><path d="M 563.121094 188.316406 L 660.039062 137.359375 L 710.996094 234.277344 L 614.078125 285.234375 Z M 563.121094 188.316406 " clip-rule="nonzero"/></clipPath><clipPath id="e951cf0561"><path d="M 563.121094 188.316406 L 660.039062 137.359375 L 710.996094 234.277344 L 614.078125 285.234375 Z M 563.121094 188.316406 " clip-rule="nonzero"/></clipPath><clipPath id="90a3cf2d23"><path d="M 649 385 L 744 385 L 744 485 L 649 485 Z M 649 385 " clip-rule="nonzero"/></clipPath><clipPath id="92069464a8"><path d="M 636.984375 400.8125 L 724.324219 371.121094 L 755.464844 462.722656 L 668.125 492.414062 Z M 636.984375 400.8125 " clip-rule="nonzero"/></clipPath><clipPath id="83ab98c25c"><path d="M 636.984375 400.8125 L 724.324219 371.121094 L 755.464844 462.722656 L 668.125 492.414062 Z M 636.984375 400.8125 " clip-rule="nonzero"/></clipPath><clipPath id="1764dea1d2"><path d="M 674 413 L 714 413 L 714 440 L 674 440 Z M 674 413 " clip-rule="nonzero"/></clipPath><clipPath id="270595c7d8"><path d="M 636.984375 400.8125 L 724.324219 371.121094 L 755.464844 462.722656 L 668.125 492.414062 Z M 636.984375 400.8125 " clip-rule="nonzero"/></clipPath><clipPath id="1fc8385447"><path d="M 636.984375 400.8125 L 724.324219 371.121094 L 755.464844 462.722656 L 668.125 492.414062 Z M 636.984375 400.8125 " clip-rule="nonzero"/></clipPath><clipPath id="7a99446a8f"><path d="M 671 424 L 725 424 L 725 451 L 671 451 Z M 671 424 " clip-rule="nonzero"/></clipPath><clipPath id="d4a4b9731f"><path d="M 636.984375 400.8125 L 724.324219 371.121094 L 755.464844 462.722656 L 668.125 492.414062 Z M 636.984375 400.8125 " clip-rule="nonzero"/></clipPath><clipPath id="1a0a35bad6"><path d="M 636.984375 400.8125 L 724.324219 371.121094 L 755.464844 462.722656 L 668.125 492.414062 Z M 636.984375 400.8125 " clip-rule="nonzero"/></clipPath><clipPath id="8e46f6aa57"><path d="M 679 429 L 718 429 L 718 448 L 679 448 Z M 679 429 " clip-rule="nonzero"/></clipPath><clipPath id="a6a0d46c44"><path d="M 636.984375 400.8125 L 724.324219 371.121094 L 755.464844 462.722656 L 668.125 492.414062 Z M 636.984375 400.8125 " clip-rule="nonzero"/></clipPath><clipPath id="fc99673b17"><path d="M 636.984375 400.8125 L 724.324219 371.121094 L 755.464844 462.722656 L 668.125 492.414062 Z M 636.984375 400.8125 " clip-rule="nonzero"/></clipPath><clipPath id="48db943007"><path d="M 678 416 L 711 416 L 711 436 L 678 436 Z M 678 416 " clip-rule="nonzero"/></clipPath><clipPath id="674f777503"><path d="M 636.984375 400.8125 L 724.324219 371.121094 L 755.464844 462.722656 L 668.125 492.414062 Z M 636.984375 400.8125 " clip-rule="nonzero"/></clipPath><clipPath id="3bf6e6c9c1"><path d="M 636.984375 400.8125 L 724.324219 371.121094 L 755.464844 462.722656 L 668.125 492.414062 Z M 636.984375 400.8125 " clip-rule="nonzero"/></clipPath><clipPath id="8a3beccd5f"><path d="M 534 352 L 647 352 L 647 500 L 534 500 Z M 534 352 " clip-rule="nonzero"/></clipPath><clipPath id="d1a3ff5341"><path d="M 563.234375 340.460938 L 658.507812 367.363281 L 617.746094 511.71875 L 522.46875 484.816406 Z M 563.234375 340.460938 " clip-rule="nonzero"/></clipPath><clipPath id="f5ba17637b"><path d="M 563.234375 340.460938 L 658.507812 367.363281 L 617.746094 511.71875 L 522.46875 484.816406 Z M 563.234375 340.460938 " clip-rule="nonzero"/></clipPath><clipPath id="cbbc6b3782"><path d="M 558 387 L 635 387 L 635 422 L 558 422 Z M 558 387 " clip-rule="nonzero"/></clipPath><clipPath id="284ba4e1c3"><path d="M 563.234375 340.460938 L 658.507812 367.363281 L 617.746094 511.71875 L 522.46875 484.816406 Z M 563.234375 340.460938 " clip-rule="nonzero"/></clipPath><clipPath id="89258d6bb4"><path d="M 563.234375 340.460938 L 658.507812 367.363281 L 617.746094 511.71875 L 522.46875 484.816406 Z M 563.234375 340.460938 " clip-rule="nonzero"/></clipPath><clipPath id="f179f6c662"><path d="M 575 379 L 627 379 L 627 412 L 575 412 Z M 575 379 " clip-rule="nonzero"/></clipPath><clipPath id="93d05b42c2"><path d="M 563.234375 340.460938 L 658.507812 367.363281 L 617.746094 511.71875 L 522.46875 484.816406 Z M 563.234375 340.460938 " clip-rule="nonzero"/></clipPath><clipPath id="55367dddf4"><path d="M 563.234375 340.460938 L 658.507812 367.363281 L 617.746094 511.71875 L 522.46875 484.816406 Z M 563.234375 340.460938 " clip-rule="nonzero"/></clipPath></defs><g clip-path="url(#8dfec45e66)"><path fill="#ffffff" d="M 0 0.140625 L 1024.5 0.140625 L 1024.5 583.640625 L 0 583.640625 Z M 0 0.140625 " fill-opacity="1" fill-rule="nonzero"/><path fill="#ffffff" d="M 0 0.140625 L 1024.5 0.140625 L 1024.5 576.140625 L 0 576.140625 Z M 0 0.140625 " fill-opacity="1" fill-rule="nonzero"/><path fill="#03045e" d="M 0 0.140625 L 1024.5 0.140625 L 1024.5 576.140625 L 0 576.140625 Z M 0 0.140625 " fill-opacity="1" fill-rule="nonzero"/></g><g clip-path="url(#e1f8203f17)"><g clip-path="url(#5b96f6ae74)"><g clip-path="url(#85c2ff871b)"><path fill="#f69aa2" d="M 806.066406 144.867188 C 810.878906 151.839844 813.09375 160.613281 811.609375 169.625 C 808.5625 188.140625 791.0625 200.695312 772.546875 197.648438 C 758.625 195.355469 748.089844 184.917969 745.019531 172.015625 C 737.839844 182.757812 724.824219 188.953125 711.222656 186.714844 C 692.707031 183.667969 680.152344 166.167969 683.199219 147.648438 C 684.648438 138.855469 689.386719 131.40625 695.890625 126.332031 C 684.886719 119.179688 678.535156 105.992188 680.796875 92.246094 C 683.847656 73.730469 701.34375 61.175781 719.863281 64.222656 C 722.710938 64.691406 725.394531 65.5 727.882812 66.605469 C 727.878906 64.628906 727.984375 62.636719 728.3125 60.640625 C 731.363281 42.125 748.859375 29.570312 767.378906 32.617188 C 785.894531 35.664062 798.445312 53.164062 795.398438 71.683594 C 795.03125 73.925781 794.457031 76.0625 793.6875 78.09375 C 797.136719 77.5625 800.726562 77.53125 804.394531 78.136719 C 822.910156 81.183594 835.464844 98.683594 832.417969 117.199219 C 830.054688 131.332031 819.265625 141.992188 806.066406 144.867188 Z M 806.066406 144.867188 " fill-opacity="1" fill-rule="nonzero"/></g></g></g><g clip-path="url(#f5b1c58735)"><g clip-path="url(#072b7d7058)"><g clip-path="url(#adfbb03ccf)"><path fill="#f5f5ef" d="M 755.410156 102.660156 C 753.980469 111.351562 745.777344 117.207031 737.125 115.78125 C 728.46875 114.355469 722.582031 106.144531 724.003906 97.492188 C 725.429688 88.839844 733.640625 82.949219 742.292969 84.375 C 750.945312 85.796875 756.835938 94.007812 755.410156 102.660156 Z M 776.652344 90.027344 C 767.964844 88.597656 759.789062 94.496094 758.367188 103.148438 C 756.941406 111.800781 762.832031 120.011719 771.484375 121.4375 C 780.136719 122.859375 788.347656 116.96875 789.773438 108.316406 C 791.195312 99.664062 785.304688 91.453125 776.652344 90.027344 Z M 776.652344 90.027344 " fill-opacity="1" fill-rule="nonzero"/></g></g></g><g clip-path="url(#4445ab56a4)"><g clip-path="url(#ce9d9da3a3)"><g clip-path="url(#3ac239987e)"><path fill="#ff7f1d" d="M 799.882812 129.546875 C 799 134.925781 793.898438 138.585938 788.519531 137.699219 C 783.144531 136.8125 779.484375 131.714844 780.371094 126.335938 C 781.253906 120.960938 786.355469 117.300781 791.730469 118.183594 C 797.109375 119.070312 800.769531 124.171875 799.882812 129.546875 Z M 718.945312 106.242188 C 713.566406 105.359375 708.464844 109.015625 707.582031 114.394531 C 706.695312 119.769531 710.355469 124.871094 715.734375 125.757812 C 721.109375 126.640625 726.210938 122.980469 727.09375 117.605469 C 727.984375 112.191406 724.355469 107.132812 718.945312 106.242188 Z M 718.945312 106.242188 " fill-opacity="1" fill-rule="nonzero"/></g></g></g><g clip-path="url(#5c2082aca9)"><g clip-path="url(#5ce68d85a4)"><g clip-path="url(#746f90fd34)"><path fill="#2e2e2e" d="M 751.875 138.363281 C 737.347656 135.96875 727.175781 126.214844 722.246094 120.390625 C 720.867188 118.773438 721.082031 116.359375 722.699219 114.980469 C 724.316406 113.601562 726.730469 113.816406 728.109375 115.433594 C 736.589844 125.457031 754.722656 139.964844 781.308594 124.1875 C 783.132812 123.097656 785.484375 123.703125 786.574219 125.527344 C 787.664062 127.355469 787.058594 129.703125 785.230469 130.792969 C 772.457031 138.421875 761.242188 139.902344 751.875 138.363281 Z M 751.875 138.363281 " fill-opacity="1" fill-rule="nonzero"/></g></g></g><g clip-path="url(#69a5a435fa)"><g clip-path="url(#4d07ff00da)"><g clip-path="url(#56a36a6174)"><path fill="#2e2e2e" d="M 749.25 101.648438 C 748.382812 106.917969 743.402344 110.523438 738.09375 109.652344 C 732.824219 108.785156 729.21875 103.800781 730.09375 98.496094 C 730.96875 93.191406 735.941406 89.621094 741.25 90.492188 C 746.554688 91.367188 750.117188 96.378906 749.25 101.648438 Z M 775.644531 96.152344 C 770.375 95.285156 765.363281 98.851562 764.492188 104.15625 C 763.617188 109.460938 767.1875 114.4375 772.492188 115.3125 C 777.761719 116.179688 782.773438 112.613281 783.648438 107.308594 C 784.519531 102.003906 780.914062 97.019531 775.644531 96.152344 Z M 775.644531 96.152344 " fill-opacity="1" fill-rule="nonzero"/></g></g></g><g clip-path="url(#7d201cff22)"><g clip-path="url(#c6be15e9c3)"><g clip-path="url(#519de9a995)"><path fill="#ffb72c" d="M 905.734375 159.433594 C 885.496094 167.113281 862.613281 156.777344 854.914062 136.476562 L 840.449219 98.355469 C 832.75 78.058594 843.019531 55.148438 863.257812 47.46875 C 883.5 39.792969 906.382812 50.128906 914.082031 70.425781 L 928.542969 108.546875 C 936.242188 128.84375 925.972656 151.753906 905.734375 159.433594 Z M 905.734375 159.433594 " fill-opacity="1" fill-rule="nonzero"/></g></g></g><g clip-path="url(#776d6b9c71)"><g clip-path="url(#f53133fd8a)"><g clip-path="url(#c33ffdbfac)"><path fill="#ff7f1d" d="M 907.339844 75.582031 C 908.640625 79.007812 906.925781 82.832031 903.511719 84.128906 C 900.097656 85.421875 896.277344 83.699219 894.980469 80.273438 C 893.679688 76.847656 895.394531 73.023438 898.808594 71.730469 C 902.222656 70.433594 906.042969 72.160156 907.339844 75.582031 Z M 852.722656 89.214844 C 849.304688 90.507812 847.59375 94.332031 848.890625 97.757812 C 850.191406 101.183594 854.011719 102.90625 857.425781 101.613281 C 860.839844 100.316406 862.542969 96.46875 861.253906 93.066406 C 859.964844 89.667969 856.136719 87.917969 852.722656 89.214844 Z M 852.722656 89.214844 " fill-opacity="1" fill-rule="nonzero"/></g></g></g><g clip-path="url(#99d490e703)"><g clip-path="url(#2356efb8a4)"><g clip-path="url(#6cf2a90049)"><path fill="#2e2e2e" d="M 865.984375 84.867188 C 861.175781 86.691406 856.148438 83.738281 855.59375 83.40625 C 854.226562 82.582031 853.804688 80.796875 854.648438 79.417969 C 855.480469 78.070312 857.25 77.628906 858.621094 78.453125 C 859.433594 78.945312 862.175781 80.164062 864 79.414062 C 865.164062 78.945312 866.011719 77.652344 866.574219 75.523438 C 866.980469 73.964844 868.546875 73.058594 870.101562 73.46875 C 871.652344 73.882812 872.5625 75.453125 872.15625 77.007812 C 870.84375 81.964844 868.160156 83.984375 866.125 84.785156 C 866.109375 84.820312 866.035156 84.847656 865.984375 84.867188 Z M 886.972656 76.90625 C 888.996094 76.082031 891.691406 74.085938 893.003906 69.128906 C 893.410156 67.570312 892.476562 66.011719 890.949219 65.589844 C 889.394531 65.179688 887.828125 66.085938 887.421875 67.640625 C 886.875 69.738281 886.011719 71.066406 884.847656 71.535156 C 883 72.292969 880.28125 71.066406 879.464844 70.574219 C 878.097656 69.75 876.34375 70.15625 875.496094 71.535156 C 874.675781 72.90625 875.097656 74.691406 876.441406 75.527344 C 877.003906 75.882812 882.019531 78.8125 886.832031 76.988281 C 886.871094 76.945312 886.921875 76.925781 886.972656 76.90625 Z M 880.492188 91.917969 C 882.515625 91.09375 885.210938 89.097656 886.523438 84.140625 C 886.929688 82.582031 885.996094 81.023438 884.46875 80.601562 C 882.914062 80.191406 881.347656 81.097656 880.941406 82.652344 C 880.394531 84.75 879.53125 86.078125 878.367188 86.546875 C 876.542969 87.296875 873.800781 86.078125 872.984375 85.585938 C 871.617188 84.761719 869.863281 85.167969 869.015625 86.546875 C 868.195312 87.917969 868.617188 89.703125 869.960938 90.535156 C 870.523438 90.894531 875.542969 93.824219 880.351562 92 C 880.390625 91.957031 880.441406 91.9375 880.492188 91.917969 Z M 880.492188 91.917969 " fill-opacity="1" fill-rule="nonzero"/></g></g></g><g clip-path="url(#c648b620b7)"><g clip-path="url(#26c0ba40f6)"><g clip-path="url(#99739a26b6)"><path fill="#05a552" d="M 936.773438 273.78125 L 851.234375 309.914062 C 847.269531 311.589844 842.695312 309.71875 841.019531 305.753906 L 804.886719 220.214844 C 803.210938 216.25 805.082031 211.675781 809.046875 210 L 894.585938 173.871094 C 898.550781 172.191406 903.125 174.0625 904.800781 178.027344 L 940.929688 263.566406 C 942.609375 267.53125 940.738281 272.105469 936.773438 273.78125 Z M 936.773438 273.78125 " fill-opacity="1" fill-rule="nonzero"/></g></g></g><g clip-path="url(#b0e6e7723d)"><g clip-path="url(#273636c056)"><g clip-path="url(#50f25f9847)"><path fill="#ffffff" d="M 868.792969 232.050781 C 865.859375 238.476562 858.289062 241.277344 851.894531 238.359375 C 845.496094 235.4375 842.667969 227.855469 845.585938 221.460938 C 848.503906 215.0625 856.085938 212.234375 862.484375 215.152344 C 868.878906 218.070312 871.722656 225.625 868.792969 232.050781 Z M 900.238281 231.589844 C 893.8125 228.65625 886.257812 231.5 883.339844 237.898438 C 880.421875 244.292969 883.253906 251.875 889.648438 254.796875 C 896.046875 257.714844 903.628906 254.882812 906.546875 248.488281 C 909.464844 242.089844 906.664062 234.523438 900.238281 231.589844 Z M 900.238281 231.589844 " fill-opacity="1" fill-rule="nonzero"/></g></g></g><g clip-path="url(#18bda68017)"><g clip-path="url(#cfd15bbc18)"><g clip-path="url(#0abc1c3238)"><path fill="#05a552" d="M 909.929688 267.070312 C 908.109375 271.054688 903.429688 272.800781 899.445312 270.984375 C 895.457031 269.164062 893.710938 264.484375 895.53125 260.5 C 897.347656 256.511719 902.027344 254.765625 906.015625 256.585938 C 909.984375 258.359375 911.75 263.082031 909.929688 267.070312 Z M 839.859375 227.152344 C 835.875 225.332031 831.195312 227.078125 829.375 231.066406 C 827.558594 235.054688 829.304688 239.730469 833.289062 241.550781 C 837.277344 243.371094 841.957031 241.625 843.777344 237.636719 C 845.59375 233.652344 843.847656 228.972656 839.859375 227.152344 Z M 839.859375 227.152344 " fill-opacity="1" fill-rule="nonzero"/></g></g></g><g clip-path="url(#d8d79d4d76)"><g clip-path="url(#29c328a5e9)"><g clip-path="url(#c61986e32b)"><path fill="#2e2e2e" d="M 864.269531 229.984375 C 862.492188 233.882812 857.855469 235.613281 853.957031 233.835938 C 850.058594 232.058594 848.328125 227.421875 850.109375 223.523438 C 851.886719 219.625 856.523438 217.894531 860.417969 219.675781 C 864.316406 221.453125 866.0625 226.058594 864.269531 229.984375 Z M 898.175781 236.113281 C 894.277344 234.332031 889.640625 236.0625 887.863281 239.960938 C 886.085938 243.859375 887.816406 248.496094 891.710938 250.273438 C 895.609375 252.050781 900.246094 250.320312 902.023438 246.421875 C 903.800781 242.527344 902.070312 237.890625 898.175781 236.113281 Z M 898.175781 236.113281 " fill-opacity="1" fill-rule="nonzero"/></g></g></g><g clip-path="url(#fb26641ac3)"><g clip-path="url(#9f35c25a9a)"><g clip-path="url(#0c3f4022c1)"><path fill="#2e2e2e" d="M 868.238281 253.113281 C 867.96875 252.992188 867.703125 252.867188 867.449219 252.71875 C 860.066406 248.882812 857.886719 240.660156 857.789062 240.328125 C 857.363281 238.660156 858.371094 236.929688 860.039062 236.503906 C 861.707031 236.078125 863.4375 237.085938 863.863281 238.75 C 863.914062 238.882812 865.507812 244.679688 870.367188 247.183594 C 873.574219 248.824219 877.59375 248.757812 882.40625 246.960938 C 884.050781 246.347656 885.835938 247.160156 886.449219 248.808594 C 887.066406 250.453125 886.25 252.238281 884.605469 252.851562 C 878.4375 255.179688 872.9375 255.257812 868.238281 253.113281 Z M 868.238281 253.113281 " fill-opacity="1" fill-rule="nonzero"/></g></g></g><g clip-path="url(#f945fef17c)"><path fill="#ff9441" d="M 782.703125 503.753906 C 760.742188 503.753906 745.941406 481.078125 754.847656 460.945312 C 771.1875 423.855469 808.1875 398.003906 851.199219 398.003906 C 894.210938 398.003906 931.210938 423.855469 947.59375 460.945312 C 956.496094 481.078125 941.695312 503.753906 919.734375 503.753906 Z M 782.703125 503.753906 " fill-opacity="1" fill-rule="nonzero"/></g><path fill="#ffffff" d="M 849.617188 440.257812 C 849.617188 449.667969 842.019531 457.292969 832.640625 457.292969 C 823.261719 457.292969 815.664062 449.667969 815.664062 440.257812 C 815.664062 430.84375 823.261719 423.21875 832.640625 423.21875 C 842.019531 423.21875 849.617188 430.84375 849.617188 440.257812 Z M 869.796875 423.21875 C 860.417969 423.21875 852.820312 430.84375 852.820312 440.257812 C 852.820312 449.667969 860.417969 457.292969 869.796875 457.292969 C 879.175781 457.292969 886.773438 449.667969 886.773438 440.257812 C 886.773438 430.84375 879.175781 423.21875 869.796875 423.21875 Z M 869.796875 423.21875 " fill-opacity="1" fill-rule="nonzero"/><path fill="#2e2e2e" d="M 850.921875 479.210938 C 842.652344 479.210938 835.964844 472.460938 835.964844 464.203125 C 835.964844 455.902344 842.691406 449.191406 850.921875 449.191406 C 859.191406 449.191406 865.878906 455.941406 865.878906 464.203125 C 865.878906 472.460938 859.191406 479.210938 850.921875 479.210938 Z M 850.921875 457.371094 C 847.164062 457.371094 844.117188 460.429688 844.117188 464.203125 C 844.117188 467.976562 847.164062 471.03125 850.921875 471.03125 C 854.683594 471.03125 857.730469 467.976562 857.730469 464.203125 C 857.730469 460.429688 854.683594 457.371094 850.921875 457.371094 Z M 850.921875 457.371094 " fill-opacity="1" fill-rule="nonzero"/><path fill="#ff9441" d="M 901.136719 460.945312 C 901.136719 466.785156 896.429688 471.546875 890.570312 471.546875 C 884.753906 471.546875 880.007812 466.824219 880.007812 460.945312 C 880.007812 455.070312 884.714844 450.34375 890.570312 450.34375 C 896.386719 450.34375 901.136719 455.109375 901.136719 460.945312 Z M 811.867188 450.34375 C 806.050781 450.34375 801.300781 455.070312 801.300781 460.945312 C 801.300781 466.824219 806.011719 471.546875 811.867188 471.546875 C 817.722656 471.546875 822.433594 466.824219 822.433594 460.945312 C 822.433594 455.070312 817.683594 450.34375 811.867188 450.34375 Z M 811.867188 450.34375 " fill-opacity="1" fill-rule="nonzero"/><path fill="#2e2e2e" d="M 842.96875 440.257812 C 842.96875 446.015625 838.339844 450.660156 832.601562 450.660156 C 826.863281 450.660156 822.234375 446.015625 822.234375 440.257812 C 822.234375 434.5 826.863281 429.851562 832.601562 429.851562 C 838.339844 429.851562 842.96875 434.5 842.96875 440.257812 Z M 869.796875 429.851562 C 864.058594 429.851562 859.429688 434.5 859.429688 440.257812 C 859.429688 446.015625 864.058594 450.660156 869.796875 450.660156 C 875.535156 450.660156 880.164062 446.015625 880.164062 440.257812 C 880.164062 434.5 875.535156 429.851562 869.796875 429.851562 Z M 869.796875 429.851562 " fill-opacity="1" fill-rule="nonzero"/><g clip-path="url(#1282d9b558)"><g clip-path="url(#b4861e0d56)"><g clip-path="url(#7232b01405)"><path fill="#84caed" d="M 663.160156 101.347656 C 671.613281 116.9375 665.824219 136.421875 650.226562 144.859375 C 634.632812 153.300781 615.152344 147.511719 606.699219 131.925781 C 598.242188 116.335938 604.035156 96.855469 619.628906 88.414062 C 635.222656 79.972656 654.710938 85.75 663.160156 101.347656 Z M 663.160156 101.347656 " fill-opacity="1" fill-rule="nonzero"/></g></g></g><g clip-path="url(#be629b938f)"><g clip-path="url(#814a8d2a8f)"><g clip-path="url(#5727412791)"><path fill="#ffffff" d="M 635.730469 110.847656 C 634.273438 115.761719 629.101562 118.554688 624.179688 117.09375 C 619.253906 115.628906 616.449219 110.464844 617.910156 105.550781 C 619.371094 100.636719 624.542969 97.839844 629.464844 99.304688 C 634.386719 100.765625 637.191406 105.933594 635.730469 110.847656 Z M 648.960938 105.097656 C 644.035156 103.632812 638.867188 106.429688 637.40625 111.34375 C 635.945312 116.257812 638.75 121.421875 643.671875 122.886719 C 648.597656 124.347656 653.765625 121.554688 655.226562 116.640625 C 656.6875 111.726562 653.882812 106.558594 648.960938 105.097656 Z M 648.960938 105.097656 " fill-opacity="1" fill-rule="nonzero"/></g></g></g><g clip-path="url(#22f81f52fa)"><g clip-path="url(#6c5f6e77ab)"><g clip-path="url(#39874e7097)"><path fill="#2e2e2e" d="M 632.261719 109.816406 C 631.371094 112.8125 628.214844 114.507812 625.222656 113.617188 C 622.234375 112.730469 620.519531 109.574219 621.40625 106.589844 C 622.292969 103.601562 625.453125 101.894531 628.445312 102.785156 C 631.433594 103.671875 633.152344 106.816406 632.261719 109.816406 Z M 647.925781 108.574219 C 644.921875 107.679688 641.777344 109.394531 640.890625 112.378906 C 640 115.363281 641.714844 118.519531 644.707031 119.410156 C 647.695312 120.296875 650.855469 118.589844 651.742188 115.605469 C 652.632812 112.617188 650.929688 109.464844 647.925781 108.574219 Z M 647.925781 108.574219 " fill-opacity="1" fill-rule="nonzero"/></g></g></g><g clip-path="url(#38a6d67dcb)"><g clip-path="url(#ae79a89da9)"><g clip-path="url(#6407421374)"><path fill="#84caed" d="M 659.542969 129.660156 C 658.636719 132.707031 655.429688 134.441406 652.375 133.535156 C 649.324219 132.625 647.582031 129.421875 648.488281 126.375 C 649.394531 123.328125 652.601562 121.59375 655.65625 122.5 C 658.707031 123.410156 660.445312 126.613281 659.542969 129.660156 Z M 614.378906 110.222656 C 611.328125 109.316406 608.121094 111.050781 607.214844 114.097656 C 606.308594 117.144531 608.050781 120.347656 611.101562 121.253906 C 614.152344 122.160156 617.359375 120.425781 618.265625 117.378906 C 619.167969 114.347656 617.433594 111.128906 614.378906 110.222656 Z M 614.378906 110.222656 " fill-opacity="1" fill-rule="nonzero"/></g></g></g><g clip-path="url(#8f80a465db)"><g clip-path="url(#e4bec6a2cf)"><g clip-path="url(#e34c7ed64f)"><path fill="#2e2e2e" d="M 649.421875 129.40625 C 630.914062 137.421875 620.457031 125.691406 616.492188 119.609375 C 615.738281 118.449219 616.84375 116.984375 618.171875 117.378906 L 649.261719 126.617188 C 650.59375 127 650.699219 128.851562 649.421875 129.40625 Z M 649.421875 129.40625 " fill-opacity="1" fill-rule="nonzero"/></g></g></g><g clip-path="url(#26ee5a2d68)"><g clip-path="url(#2677843310)"><g clip-path="url(#5f72680db6)"><path fill="#3a5dc4" d="M 740.339844 210.765625 C 757.671875 196.007812 784.4375 205.53125 788.550781 227.917969 L 813.972656 366.144531 C 818.085938 388.53125 796.441406 406.9375 774.996094 399.308594 L 708.816406 375.761719 L 642.597656 352.203125 C 621.152344 344.574219 616.011719 316.59375 633.324219 301.875 Z M 740.339844 210.765625 " fill-opacity="1" fill-rule="nonzero"/></g></g></g><g clip-path="url(#f85df36144)"><g clip-path="url(#91b85152fc)"><g clip-path="url(#a87a76d8f0)"><path fill="#ffffff" d="M 730.507812 308.34375 C 726.261719 320.269531 713.160156 326.496094 701.230469 322.25 C 689.300781 318.003906 683.074219 304.902344 687.316406 292.976562 C 691.558594 281.050781 704.664062 274.824219 716.59375 279.070312 C 728.523438 283.3125 734.75 296.414062 730.507812 308.34375 Z M 763.820312 295.871094 C 751.890625 291.628906 738.789062 297.851562 734.546875 309.78125 C 730.300781 321.707031 736.527344 334.808594 748.457031 339.054688 C 760.390625 343.296875 773.492188 337.074219 777.734375 325.144531 C 781.976562 313.21875 775.75 300.117188 763.820312 295.871094 Z M 763.820312 295.871094 " fill-opacity="1" fill-rule="nonzero"/></g></g></g><g clip-path="url(#bdef2fedce)"><g clip-path="url(#2f80377228)"><g clip-path="url(#335b9025e7)"><path fill="#3a5dc4" d="M 786.613281 357.816406 C 783.980469 365.210938 775.84375 369.078125 768.441406 366.445312 C 761.042969 363.8125 757.175781 355.675781 759.808594 348.277344 C 762.441406 340.878906 770.578125 337.015625 777.976562 339.648438 C 785.375 342.28125 789.242188 350.417969 786.613281 357.816406 Z M 677.96875 304.066406 C 670.570312 301.433594 662.433594 305.300781 659.800781 312.699219 C 657.167969 320.097656 661.035156 328.234375 668.433594 330.867188 C 675.835938 333.5 683.972656 329.632812 686.605469 322.234375 C 689.238281 314.835938 685.371094 306.699219 677.96875 304.066406 Z M 677.96875 304.066406 " fill-opacity="1" fill-rule="nonzero"/></g></g></g><g clip-path="url(#68b36a0d66)"><g clip-path="url(#3789068242)"><g clip-path="url(#70b79571cc)"><path fill="#2e2e2e" d="M 722.050781 305.332031 C 719.472656 312.582031 711.472656 316.410156 704.1875 313.820312 C 696.902344 311.226562 693.105469 303.242188 695.699219 295.957031 C 698.289062 288.671875 706.273438 284.878906 713.558594 287.472656 C 720.847656 290.066406 724.628906 298.085938 722.050781 305.332031 Z M 760.8125 304.328125 C 753.566406 301.75 745.542969 305.527344 742.949219 312.8125 C 740.359375 320.097656 744.152344 328.082031 751.441406 330.671875 C 758.726562 333.265625 766.710938 329.472656 769.300781 322.1875 C 771.894531 314.902344 768.101562 306.917969 760.8125 304.328125 Z M 722.992188 342.492188 L 739.960938 336.878906 C 742.21875 336.152344 743.433594 333.691406 742.707031 331.433594 C 741.976562 329.175781 739.515625 327.960938 737.257812 328.691406 L 723.46875 333.265625 L 715.4375 320.925781 C 714.148438 318.9375 711.460938 318.363281 709.46875 319.652344 C 707.480469 320.945312 706.90625 323.632812 708.195312 325.621094 L 717.996094 340.757812 C 718.511719 341.578125 719.285156 342.152344 720.152344 342.460938 C 721.058594 342.785156 722.035156 342.792969 722.992188 342.492188 Z M 722.992188 342.492188 " fill-opacity="1" fill-rule="nonzero"/></g></g></g><g clip-path="url(#e71d4ee0b1)"><g clip-path="url(#36c014ce28)"><g clip-path="url(#d5e9882b4b)"><path fill="#2e2e2e" d="M 775.585938 293.167969 L 707.214844 268.84375 C 704.988281 268.050781 703.820312 265.59375 704.613281 263.367188 C 705.40625 261.140625 707.863281 259.972656 710.089844 260.765625 L 778.460938 285.089844 C 780.6875 285.882812 781.855469 288.339844 781.0625 290.566406 C 780.269531 292.792969 777.851562 293.976562 775.585938 293.167969 Z M 775.585938 293.167969 " fill-opacity="1" fill-rule="nonzero"/></g></g></g><g clip-path="url(#d49d61f7d6)"><g clip-path="url(#3a9562b09a)"><g clip-path="url(#cc019445cf)"><path fill="#ffb72c" d="M 878.339844 323.714844 C 894.433594 333.554688 899.496094 354.574219 889.644531 370.664062 C 879.792969 386.75 858.773438 391.8125 842.675781 381.972656 C 826.582031 372.136719 821.519531 351.113281 831.371094 335.027344 C 841.222656 318.941406 862.238281 313.863281 878.339844 323.714844 Z M 878.339844 323.714844 " fill-opacity="1" fill-rule="nonzero"/></g></g></g><g clip-path="url(#418aec82c9)"><g clip-path="url(#ab53b7e82f)"><g clip-path="url(#33c393a105)"><path fill="#ffffff" d="M 858.15625 347.085938 C 859.433594 352.386719 856.167969 357.71875 850.855469 359 C 845.542969 360.277344 840.207031 357.019531 838.929688 351.71875 C 837.652344 346.414062 840.921875 341.085938 846.234375 339.804688 C 851.542969 338.527344 856.882812 341.785156 858.15625 347.085938 Z M 867.265625 334.742188 C 861.957031 336.019531 858.6875 341.351562 859.964844 346.652344 C 861.242188 351.953125 866.578125 355.210938 871.890625 353.933594 C 877.199219 352.652344 880.46875 347.324219 879.191406 342.019531 C 877.914062 336.71875 872.578125 333.460938 867.265625 334.742188 Z M 867.265625 334.742188 " fill-opacity="1" fill-rule="nonzero"/></g></g></g><g clip-path="url(#b1ac03d145)"><g clip-path="url(#d66b153fa7)"><g clip-path="url(#e079c28355)"><path fill="#2e2e2e" d="M 854.414062 347.988281 C 855.191406 351.222656 853.191406 354.46875 849.964844 355.242188 C 846.738281 356.019531 843.476562 354.03125 842.699219 350.808594 C 841.925781 347.589844 843.921875 344.332031 847.148438 343.554688 C 850.375 342.777344 853.632812 344.753906 854.414062 347.988281 Z M 868.171875 338.492188 C 864.929688 339.273438 862.945312 342.527344 863.722656 345.746094 C 864.496094 348.96875 867.757812 350.957031 870.984375 350.179688 C 874.210938 349.40625 876.210938 346.148438 875.433594 342.925781 C 874.660156 339.707031 871.410156 337.710938 868.171875 338.492188 Z M 868.171875 338.492188 " fill-opacity="1" fill-rule="nonzero"/></g></g></g><g clip-path="url(#73fed4b851)"><g clip-path="url(#679fd5ef7d)"><g clip-path="url(#e677ebb0d5)"><path fill="#ff7f1d" d="M 890.109375 351.703125 C 890.898438 354.992188 888.871094 358.296875 885.578125 359.089844 C 882.285156 359.882812 878.976562 357.863281 878.183594 354.574219 C 877.390625 351.289062 879.417969 347.980469 882.710938 347.1875 C 886.003906 346.394531 889.316406 348.417969 890.109375 351.703125 Z M 838.171875 357.902344 C 834.878906 358.695312 832.851562 362.003906 833.640625 365.289062 C 834.433594 368.574219 837.746094 370.597656 841.039062 369.804688 C 844.332031 369.011719 846.359375 365.703125 845.566406 362.417969 C 844.777344 359.144531 841.464844 357.109375 838.171875 357.902344 Z M 838.171875 357.902344 " fill-opacity="1" fill-rule="nonzero"/></g></g></g><g clip-path="url(#f65f82824f)"><g clip-path="url(#5d68b80daf)"><g clip-path="url(#96135a2f1e)"><path fill="#2e2e2e" d="M 880.660156 356.867188 C 867.898438 374.117188 852.015625 368.898438 845.121094 365.414062 C 843.808594 364.746094 844.046875 362.8125 845.480469 362.464844 L 879.023438 354.386719 C 880.453125 354.027344 881.539062 355.675781 880.660156 356.867188 Z M 880.660156 356.867188 " fill-opacity="1" fill-rule="nonzero"/></g></g></g><g clip-path="url(#b176b31852)"><g clip-path="url(#a47d1ea5ca)"><g clip-path="url(#4e03e48ae5)"><path fill="#ff9441" d="M 684.476562 188.449219 L 666.941406 254.636719 C 666.128906 257.703125 662.972656 259.527344 659.90625 258.714844 L 593.71875 241.179688 C 590.652344 240.367188 588.828125 237.214844 589.640625 234.144531 L 607.175781 167.957031 C 607.984375 164.890625 611.140625 163.066406 614.210938 163.878906 L 680.398438 181.414062 C 683.464844 182.226562 685.289062 185.378906 684.476562 188.449219 Z M 684.476562 188.449219 " fill-opacity="1" fill-rule="nonzero"/></g></g></g><g clip-path="url(#a6b88871a8)"><g clip-path="url(#72dca7dcc8)"><g clip-path="url(#b9448ff056)"><path fill="#ffffff" d="M 629.460938 209.257812 C 631.882812 213.867188 630.101562 219.542969 625.511719 221.957031 C 620.925781 224.371094 615.226562 222.597656 612.8125 218.011719 C 610.398438 213.421875 612.171875 207.722656 616.761719 205.308594 C 621.347656 202.898438 627.035156 204.648438 629.460938 209.257812 Z M 643.386719 190.710938 C 638.773438 193.136719 637.023438 198.824219 639.4375 203.414062 C 641.851562 208 647.550781 209.773438 652.136719 207.359375 C 656.726562 204.945312 658.496094 199.25 656.085938 194.660156 C 653.671875 190.070312 647.996094 188.289062 643.386719 190.710938 Z M 643.386719 190.710938 " fill-opacity="1" fill-rule="nonzero"/></g></g></g><g clip-path="url(#3531d55cc7)"><g clip-path="url(#82720caea6)"><g clip-path="url(#1d7b6623b7)"><path fill="#ff9441" d="M 668.449219 201.074219 C 669.953125 203.933594 668.859375 207.449219 666 208.953125 C 663.136719 210.457031 659.621094 209.363281 658.117188 206.503906 C 656.613281 203.644531 657.707031 200.128906 660.566406 198.625 C 663.394531 197.109375 666.945312 198.214844 668.449219 201.074219 Z M 613.546875 223.917969 C 610.6875 225.421875 609.59375 228.9375 611.097656 231.796875 C 612.601562 234.65625 616.121094 235.75 618.980469 234.246094 C 621.839844 232.742188 622.933594 229.226562 621.429688 226.367188 C 619.925781 223.507812 616.410156 222.414062 613.546875 223.917969 Z M 613.546875 223.917969 " fill-opacity="1" fill-rule="nonzero"/></g></g></g><g clip-path="url(#446687500d)"><g clip-path="url(#3d839409b0)"><g clip-path="url(#6d07452a67)"><path fill="#2e2e2e" d="M 626.214844 210.960938 C 627.6875 213.757812 626.605469 217.242188 623.808594 218.714844 C 621.011719 220.183594 617.527344 219.101562 616.058594 216.304688 C 614.585938 213.507812 615.671875 210.023438 618.464844 208.554688 C 621.261719 207.082031 624.734375 208.144531 626.214844 210.960938 Z M 645.089844 193.957031 C 642.292969 195.425781 641.210938 198.910156 642.679688 201.707031 C 644.152344 204.503906 647.636719 205.585938 650.433594 204.117188 C 653.226562 202.644531 654.3125 199.160156 652.839844 196.363281 C 651.371094 193.570312 647.886719 192.484375 645.089844 193.957031 Z M 645.089844 193.957031 " fill-opacity="1" fill-rule="nonzero"/></g></g></g><g clip-path="url(#21e8cfeef2)"><g clip-path="url(#027b3332b0)"><g clip-path="url(#e951cf0561)"><path fill="#2e2e2e" d="M 641.492188 219.085938 C 641.300781 219.1875 641.109375 219.289062 640.90625 219.367188 C 635.339844 221.941406 629.5625 219.5 629.324219 219.410156 C 628.160156 218.90625 627.601562 217.535156 628.105469 216.371094 C 628.613281 215.207031 629.980469 214.648438 631.144531 215.15625 C 631.242188 215.183594 635.34375 216.871094 638.996094 215.167969 C 641.402344 214.039062 643.175781 211.664062 644.300781 208.046875 C 644.683594 206.8125 645.964844 206.136719 647.203125 206.523438 C 648.441406 206.90625 649.113281 208.1875 648.726562 209.425781 C 647.300781 214.070312 644.867188 217.3125 641.492188 219.085938 Z M 641.492188 219.085938 " fill-opacity="1" fill-rule="nonzero"/></g></g></g><g clip-path="url(#90a3cf2d23)"><g clip-path="url(#92069464a8)"><g clip-path="url(#83ab98c25c)"><path fill="#05a552" d="M 732.164062 434.359375 C 736.675781 436.671875 740.320312 440.667969 742.078125 445.828125 C 745.683594 456.441406 739.960938 467.992188 729.300781 471.617188 C 721.285156 474.339844 712.769531 471.820312 707.507812 465.890625 C 706.734375 473.574219 701.589844 480.511719 693.761719 483.175781 C 683.101562 486.800781 671.523438 481.128906 667.917969 470.519531 C 666.203125 465.476562 666.609375 460.21875 668.621094 455.707031 C 660.78125 455.050781 653.703125 449.898438 651.027344 442.023438 C 647.417969 431.410156 653.140625 419.859375 663.800781 416.234375 C 665.441406 415.679688 667.089844 415.347656 668.714844 415.226562 C 668.15625 414.183594 667.652344 413.105469 667.265625 411.960938 C 663.65625 401.351562 669.378906 389.800781 680.039062 386.175781 C 690.699219 382.550781 702.277344 388.222656 705.882812 398.832031 C 706.320312 400.117188 706.621094 401.40625 706.785156 402.691406 C 708.460938 401.4375 710.351562 400.410156 712.464844 399.691406 C 723.125 396.066406 734.703125 401.738281 738.308594 412.347656 C 741.042969 420.457031 738.339844 429.117188 732.164062 434.359375 Z M 732.164062 434.359375 " fill-opacity="1" fill-rule="nonzero"/></g></g></g><g clip-path="url(#1764dea1d2)"><g clip-path="url(#270595c7d8)"><g clip-path="url(#1fc8385447)"><path fill="#f5f5ef" d="M 693.453125 426.4375 C 695.144531 431.417969 692.453125 436.816406 687.472656 438.511719 C 682.492188 440.203125 677.058594 437.542969 675.371094 432.585938 C 673.6875 427.625 676.371094 422.207031 681.355469 420.511719 C 686.335938 418.820312 691.765625 421.480469 693.453125 426.4375 Z M 701.136719 413.789062 C 696.132812 415.488281 693.46875 420.902344 695.152344 425.859375 C 696.839844 430.816406 702.273438 433.480469 707.253906 431.785156 C 712.234375 430.089844 714.917969 424.671875 713.234375 419.714844 C 711.546875 414.753906 706.117188 412.09375 701.136719 413.789062 Z M 701.136719 413.789062 " fill-opacity="1" fill-rule="nonzero"/></g></g></g><g clip-path="url(#7a99446a8f)"><g clip-path="url(#d4a4b9731f)"><g clip-path="url(#1a0a35bad6)"><path fill="#05a552" d="M 724.570312 428.039062 C 725.617188 431.117188 723.949219 434.484375 720.855469 435.539062 C 717.761719 436.589844 714.386719 434.9375 713.335938 431.855469 C 712.289062 428.773438 713.957031 425.40625 717.054688 424.355469 C 720.148438 423.304688 723.523438 424.957031 724.570312 428.039062 Z M 675.160156 438.621094 C 672.066406 439.671875 670.398438 443.039062 671.445312 446.121094 C 672.492188 449.203125 675.867188 450.855469 678.960938 449.804688 C 682.058594 448.75 683.726562 445.382812 682.679688 442.300781 C 681.625 439.199219 678.277344 437.5625 675.160156 438.621094 Z M 675.160156 438.621094 " fill-opacity="1" fill-rule="nonzero"/></g></g></g><g clip-path="url(#8e46f6aa57)"><g clip-path="url(#a6a0d46c44)"><g clip-path="url(#fc99673b17)"><path fill="#2e2e2e" d="M 701.648438 446.234375 C 693.28125 449.078125 685.148438 446.8125 680.898438 445.136719 C 679.710938 444.675781 679.144531 443.34375 679.613281 442.160156 C 680.078125 440.976562 681.417969 440.410156 682.605469 440.871094 C 689.917969 443.757812 703.605469 446.273438 713.230469 430.460938 C 713.886719 429.371094 715.300781 429.027344 716.394531 429.679688 C 717.484375 430.332031 717.828125 431.742188 717.167969 432.832031 C 712.554688 440.453125 707.039062 444.402344 701.648438 446.234375 Z M 701.648438 446.234375 " fill-opacity="1" fill-rule="nonzero"/></g></g></g><g clip-path="url(#48db943007)"><g clip-path="url(#674f777503)"><g clip-path="url(#3bf6e6c9c1)"><path fill="#2e2e2e" d="M 689.90625 427.644531 C 690.933594 430.664062 689.3125 433.96875 686.257812 435.007812 C 683.226562 436.039062 679.910156 434.433594 678.878906 431.394531 C 677.84375 428.351562 679.472656 425.066406 682.527344 424.027344 C 685.582031 422.992188 688.878906 424.625 689.90625 427.644531 Z M 702.328125 417.296875 C 699.292969 418.328125 697.644531 421.621094 698.679688 424.660156 C 699.714844 427.703125 703.007812 429.3125 706.058594 428.273438 C 709.09375 427.242188 710.742188 423.953125 709.707031 420.910156 C 708.675781 417.871094 705.363281 416.265625 702.328125 417.296875 Z M 702.328125 417.296875 " fill-opacity="1" fill-rule="nonzero"/></g></g></g><g clip-path="url(#8a3beccd5f)"><g clip-path="url(#d1a3ff5341)"><g clip-path="url(#f5ba17637b)"><path fill="#84caed" d="M 570.148438 498.117188 C 543.960938 490.722656 528.550781 463.277344 535.925781 437.164062 L 549.777344 388.113281 C 557.152344 362 584.636719 346.667969 610.828125 354.0625 C 637.015625 361.457031 652.425781 388.902344 645.050781 415.019531 L 631.199219 464.066406 C 623.828125 490.183594 596.339844 505.511719 570.148438 498.117188 Z M 570.148438 498.117188 " fill-opacity="1" fill-rule="nonzero"/></g></g></g><g clip-path="url(#cbbc6b3782)"><g clip-path="url(#284ba4e1c3)"><g clip-path="url(#89258d6bb4)"><path fill="#ff7f1d" d="M 634.386719 415.167969 C 633.144531 419.574219 628.554688 422.132812 624.136719 420.882812 C 619.71875 419.636719 617.144531 415.054688 618.390625 410.648438 C 619.632812 406.242188 624.222656 403.683594 628.640625 404.933594 C 633.058594 406.179688 635.632812 410.761719 634.386719 415.167969 Z M 569.003906 388.09375 C 564.585938 386.84375 560 389.402344 558.753906 393.808594 C 557.511719 398.214844 560.082031 402.796875 564.5 404.042969 C 568.917969 405.292969 573.515625 402.703125 574.753906 398.328125 C 575.988281 393.953125 573.425781 389.339844 569.003906 388.09375 Z M 569.003906 388.09375 " fill-opacity="1" fill-rule="nonzero"/></g></g></g><g clip-path="url(#f179f6c662)"><g clip-path="url(#93d05b42c2)"><g clip-path="url(#55367dddf4)"><path fill="#2e2e2e" d="M 585.65625 393.628906 C 579.429688 391.871094 576.554688 385.152344 576.246094 384.40625 C 575.480469 382.558594 576.386719 380.453125 578.269531 379.699219 C 580.113281 378.96875 582.234375 379.847656 583 381.695312 C 583.457031 382.796875 585.320312 386.066406 587.722656 386.675781 C 589.25 387.070312 591.074219 386.40625 593.230469 384.6875 C 594.804688 383.429688 597.066406 383.6875 598.328125 385.257812 C 599.589844 386.832031 599.335938 389.085938 597.761719 390.34375 C 592.734375 394.339844 588.511719 394.363281 585.859375 393.648438 C 585.816406 393.671875 585.71875 393.644531 585.65625 393.628906 Z M 612.8125 401.296875 C 615.476562 401.976562 619.6875 401.988281 624.714844 397.988281 C 626.289062 396.730469 626.511719 394.46875 625.28125 392.90625 C 624.019531 391.332031 621.757812 391.078125 620.183594 392.332031 C 618.070312 394.027344 616.203125 394.71875 614.675781 394.320312 C 612.242188 393.703125 610.410156 390.441406 609.953125 389.339844 C 609.1875 387.492188 607.109375 386.59375 605.226562 387.347656 C 603.375 388.109375 602.464844 390.214844 603.199219 392.050781 C 603.5 392.832031 606.386719 399.515625 612.609375 401.273438 C 612.683594 401.257812 612.75 401.277344 612.8125 401.296875 Z M 595.054688 411.527344 C 597.714844 412.207031 601.929688 412.21875 606.957031 408.21875 C 608.53125 406.960938 608.753906 404.699219 607.523438 403.136719 C 606.257812 401.5625 604 401.308594 602.425781 402.566406 C 600.308594 404.257812 598.445312 404.949219 596.917969 404.550781 C 594.515625 403.941406 592.652344 400.671875 592.195312 399.570312 C 591.429688 397.722656 589.351562 396.824219 587.464844 397.578125 C 585.613281 398.339844 584.707031 400.445312 585.441406 402.28125 C 585.742188 403.0625 588.625 409.746094 594.851562 411.503906 C 594.925781 411.488281 594.988281 411.507812 595.054688 411.527344 Z M 595.054688 411.527344 " fill-opacity="1" fill-rule="nonzero"/></g></g></g></svg>