<svg xmlns="http://www.w3.org/2000/svg" xmlns:xlink="http://www.w3.org/1999/xlink" width="1366" zoomAndPan="magnify" viewBox="0 0 1024.5 576" height="768" preserveAspectRatio="xMidYMid meet" version="1.0"><defs><filter x="0%" y="0%" width="100%" height="100%" id="3cc45cc009"><feColorMatrix values="0 0 0 0 1 0 0 0 0 1 0 0 0 0 1 0 0 0 1 0" color-interpolation-filters="sRGB"/></filter><clipPath id="2d14423d4e"><path d="M 0 0.140625 L 1024 0.140625 L 1024 575.859375 L 0 575.859375 Z M 0 0.140625 " clip-rule="nonzero"/></clipPath><mask id="3ff4a0bca5"><g filter="url(#3cc45cc009)"><rect x="-102.45" width="1229.4" fill="#000000" y="-57.6" height="691.2" fill-opacity="0.4275"/></g></mask><clipPath id="1d472642f5"><path d="M 0.113281 0.933594 L 1024 0.933594 L 1024 513.183594 L 0.113281 513.183594 Z M 0.113281 0.933594 " clip-rule="nonzero"/></clipPath><clipPath id="c4c4bc9697"><path d="M 690 0.933594 L 730 0.933594 L 730 20 L 690 20 Z M 690 0.933594 " clip-rule="nonzero"/></clipPath><clipPath id="ee33e05e9f"><path d="M 0.113281 458 L 22 458 L 22 490 L 0.113281 490 Z M 0.113281 458 " clip-rule="nonzero"/></clipPath><clipPath id="2ed207ef54"><path d="M 985 0.933594 L 1012 0.933594 L 1012 24 L 985 24 Z M 985 0.933594 " clip-rule="nonzero"/></clipPath><clipPath id="d8994f4ada"><path d="M 272 0.933594 L 304 0.933594 L 304 19 L 272 19 Z M 272 0.933594 " clip-rule="nonzero"/></clipPath><clipPath id="c30e773a3a"><path d="M 0.113281 237 L 18 237 L 18 263 L 0.113281 263 Z M 0.113281 237 " clip-rule="nonzero"/></clipPath><clipPath id="c090d8758c"><rect x="0" width="1024" y="0" height="514"/></clipPath></defs><g clip-path="url(#2d14423d4e)"><path fill="#ffffff" d="M 0 0.140625 L 1024.5 0.140625 L 1024.5 583.640625 L 0 583.640625 Z M 0 0.140625 " fill-opacity="1" fill-rule="nonzero"/><path fill="#ffffff" d="M 0 0.140625 L 1024.5 0.140625 L 1024.5 576.140625 L 0 576.140625 Z M 0 0.140625 " fill-opacity="1" fill-rule="nonzero"/><path fill="#ffffff" d="M 0 0.140625 L 1024.5 0.140625 L 1024.5 576.140625 L 0 576.140625 Z M 0 0.140625 " fill-opacity="1" fill-rule="nonzero"/></g><g mask="url(#3ff4a0bca5)"><g transform="matrix(1, 0, 0, 1, 0, 53)"><g clip-path="url(#c090d8758c)"><g clip-path="url(#1d472642f5)"><path fill="#f4978e" d="M 0.113281 0.933594 L 1024.613281 0.933594 L 1024.613281 513.183594 L 0.113281 513.183594 Z M 0.113281 0.933594 " fill-opacity="1" fill-rule="nonzero"/></g><g clip-path="url(#c4c4bc9697)"><path fill="#fbc4ab" d="M 710.433594 -17.164062 L 714.988281 -3.050781 L 729.898438 -3.050781 L 717.832031 5.601562 L 722.386719 19.714844 L 710.433594 10.953125 L 698.480469 19.714844 L 703.035156 5.601562 L 690.96875 -3.050781 L 705.882812 -3.050781 Z M 710.433594 -17.164062 " fill-opacity="1" fill-rule="nonzero"/></g><path fill="#fbc4ab" d="M 530.578125 195.703125 L 531.035156 197.183594 L 532.628906 197.183594 L 531.375 198.09375 L 531.832031 199.574219 L 530.578125 198.664062 L 529.324219 199.574219 L 529.78125 198.09375 L 528.527344 197.183594 L 530.121094 197.183594 Z M 530.578125 195.703125 " fill-opacity="1" fill-rule="nonzero"/><path fill="#fbc4ab" d="M 348.445312 59.445312 L 350.378906 65.476562 L 356.640625 65.476562 L 351.519531 69.121094 L 353.453125 75.039062 L 348.445312 71.398438 L 343.4375 75.039062 L 345.371094 69.121094 L 340.25 65.476562 L 346.507812 65.476562 Z M 348.445312 59.445312 " fill-opacity="1" fill-rule="nonzero"/><path fill="#fbc4ab" d="M 911.917969 468.789062 L 916.019531 481.3125 L 929.335938 481.3125 L 918.523438 489.164062 L 922.621094 501.800781 L 911.917969 493.945312 L 901.21875 501.800781 L 905.316406 489.164062 L 894.503906 481.3125 L 907.820312 481.3125 Z M 911.917969 468.789062 " fill-opacity="1" fill-rule="nonzero"/><path fill="#fbc4ab" d="M 537.40625 25.179688 L 538.660156 28.824219 L 542.53125 28.824219 L 539.34375 31.214844 L 540.59375 34.855469 L 537.40625 32.578125 L 534.21875 34.855469 L 535.472656 31.214844 L 532.285156 28.824219 L 536.15625 28.824219 Z M 537.40625 25.179688 " fill-opacity="1" fill-rule="nonzero"/><path fill="#fbc4ab" d="M 343.890625 436.460938 L 346.507812 444.65625 L 355.160156 444.65625 L 348.21875 449.664062 L 350.835938 457.859375 L 343.890625 452.851562 L 336.949219 457.859375 L 339.566406 449.664062 L 332.621094 444.65625 L 341.273438 444.65625 Z M 343.890625 436.460938 " fill-opacity="1" fill-rule="nonzero"/><path fill="#fbc4ab" d="M 22.882812 13.226562 L 26.523438 24.382812 L 38.25 24.382812 L 28.6875 31.328125 L 32.328125 42.484375 L 22.882812 35.539062 L 13.433594 42.484375 L 17.074219 31.328125 L 7.515625 24.382812 L 19.238281 24.382812 Z M 22.882812 13.226562 " fill-opacity="1" fill-rule="nonzero"/><path fill="#fbc4ab" d="M 363.242188 350.972656 L 365.40625 357.6875 L 372.464844 357.6875 L 366.773438 361.785156 L 368.933594 368.5 L 363.242188 364.289062 L 357.550781 368.5 L 359.714844 361.785156 L 354.023438 357.6875 L 361.082031 357.6875 Z M 363.242188 350.972656 " fill-opacity="1" fill-rule="nonzero"/><path fill="#fbc4ab" d="M 475.9375 73.332031 L 478.328125 80.730469 L 486.183594 80.730469 L 479.808594 85.285156 L 482.199219 92.683594 L 475.9375 88.128906 L 469.675781 92.683594 L 472.066406 85.285156 L 465.691406 80.730469 L 473.546875 80.730469 Z M 475.9375 73.332031 " fill-opacity="1" fill-rule="nonzero"/><path fill="#fbc4ab" d="M 150.375 103.269531 L 154.246094 115.109375 L 166.765625 115.109375 L 156.636719 122.507812 L 160.507812 134.347656 L 150.375 127.0625 L 140.242188 134.347656 L 144.113281 122.507812 L 133.984375 115.109375 L 146.503906 115.109375 Z M 150.375 103.269531 " fill-opacity="1" fill-rule="nonzero"/><path fill="#fbc4ab" d="M 98.011719 364.519531 L 99.71875 369.753906 L 105.183594 369.753906 L 100.742188 372.941406 L 102.449219 378.0625 L 98.011719 374.875 L 93.570312 378.0625 L 95.28125 372.941406 L 90.839844 369.753906 L 96.304688 369.753906 Z M 98.011719 364.519531 " fill-opacity="1" fill-rule="nonzero"/><path fill="#fbc4ab" d="M 273.316406 52.84375 L 275.933594 61.039062 L 284.585938 61.039062 L 277.640625 66.046875 L 280.257812 74.242188 L 273.316406 69.234375 L 266.371094 74.242188 L 268.988281 66.046875 L 262.046875 61.039062 L 270.695312 61.039062 Z M 273.316406 52.84375 " fill-opacity="1" fill-rule="nonzero"/><path fill="#fbc4ab" d="M 891.429688 85.625 L 893.363281 91.660156 L 899.625 91.660156 L 894.503906 95.300781 L 896.4375 101.222656 L 891.429688 97.578125 L 886.421875 101.222656 L 888.355469 95.300781 L 883.234375 91.660156 L 889.496094 91.660156 Z M 891.429688 85.625 " fill-opacity="1" fill-rule="nonzero"/><path fill="#fbc4ab" d="M 514.640625 233.382812 L 515.550781 236.339844 L 518.738281 236.339844 L 516.234375 238.164062 L 517.144531 241.234375 L 514.640625 239.300781 L 512.136719 241.234375 L 513.046875 238.164062 L 510.542969 236.339844 L 513.730469 236.339844 Z M 514.640625 233.382812 " fill-opacity="1" fill-rule="nonzero"/><path fill="#fbc4ab" d="M 611.398438 343.230469 L 614.246094 352.109375 L 623.695312 352.109375 L 616.066406 357.574219 L 619.027344 366.566406 L 611.398438 360.988281 L 603.773438 366.566406 L 606.734375 357.574219 L 599.105469 352.109375 L 608.554688 352.109375 Z M 611.398438 343.230469 " fill-opacity="1" fill-rule="nonzero"/><path fill="#fbc4ab" d="M 957.453125 113.96875 L 958.933594 118.523438 L 963.601562 118.523438 L 959.84375 121.257812 L 961.210938 125.695312 L 957.453125 122.964844 L 953.695312 125.695312 L 955.0625 121.257812 L 951.304688 118.523438 L 955.972656 118.523438 Z M 957.453125 113.96875 " fill-opacity="1" fill-rule="nonzero"/><path fill="#fbc4ab" d="M 728.648438 433.726562 L 729.332031 435.890625 L 731.722656 435.890625 L 729.785156 437.257812 L 730.582031 439.535156 L 728.648438 438.167969 L 726.710938 439.535156 L 727.507812 437.257812 L 725.574219 435.890625 L 727.964844 435.890625 Z M 728.648438 433.726562 " fill-opacity="1" fill-rule="nonzero"/><path fill="#fbc4ab" d="M 458.863281 392.519531 L 462.960938 405.042969 L 476.28125 405.042969 L 465.464844 412.898438 L 469.5625 425.53125 L 458.863281 417.679688 L 448.164062 425.53125 L 452.261719 412.898438 L 441.445312 405.042969 L 454.765625 405.042969 Z M 458.863281 392.519531 " fill-opacity="1" fill-rule="nonzero"/><path fill="#fbc4ab" d="M 283.558594 348.582031 L 285.265625 353.816406 L 290.730469 353.816406 L 286.292969 357.003906 L 288 362.128906 L 283.558594 358.941406 L 279.121094 362.128906 L 280.828125 357.003906 L 276.386719 353.816406 L 281.851562 353.816406 Z M 283.558594 348.582031 " fill-opacity="1" fill-rule="nonzero"/><path fill="#fbc4ab" d="M 866.386719 192.515625 L 867.636719 196.160156 L 871.507812 196.160156 L 868.320312 198.546875 L 869.574219 202.191406 L 866.386719 199.914062 L 863.199219 202.191406 L 864.453125 198.546875 L 861.265625 196.160156 L 865.132812 196.160156 Z M 866.386719 192.515625 " fill-opacity="1" fill-rule="nonzero"/><path fill="#fbc4ab" d="M 233.472656 208.679688 L 235.636719 215.394531 L 242.695312 215.394531 L 237 219.492188 L 239.164062 226.210938 L 233.472656 222 L 227.78125 226.210938 L 229.945312 219.492188 L 224.253906 215.394531 L 231.308594 215.394531 Z M 233.472656 208.679688 " fill-opacity="1" fill-rule="nonzero"/><path fill="#fbc4ab" d="M 979.082031 58.648438 L 981.925781 67.527344 L 991.375 67.527344 L 983.75 72.992188 L 986.707031 81.984375 L 979.082031 76.40625 L 971.453125 81.984375 L 974.414062 72.992188 L 966.789062 67.527344 L 976.234375 67.527344 Z M 979.082031 58.648438 " fill-opacity="1" fill-rule="nonzero"/><path fill="#fbc4ab" d="M 167.449219 410.507812 L 170.863281 420.867188 L 181.792969 420.867188 L 172.914062 427.355469 L 176.328125 437.710938 L 167.449219 431.222656 L 158.570312 437.710938 L 161.984375 427.355469 L 153.105469 420.867188 L 164.035156 420.867188 Z M 167.449219 410.507812 " fill-opacity="1" fill-rule="nonzero"/><path fill="#fbc4ab" d="M 197.046875 36.90625 L 199.4375 44.304688 L 207.292969 44.304688 L 200.917969 48.859375 L 203.308594 56.257812 L 197.046875 51.703125 L 190.785156 56.257812 L 193.175781 48.859375 L 186.800781 44.304688 L 194.65625 44.304688 Z M 197.046875 36.90625 " fill-opacity="1" fill-rule="nonzero"/><path fill="#fbc4ab" d="M 670.59375 390.925781 L 673.210938 399.125 L 681.863281 399.125 L 674.917969 404.132812 L 677.535156 412.328125 L 670.59375 407.320312 L 663.648438 412.328125 L 666.265625 404.132812 L 659.324219 399.125 L 667.976562 399.125 Z M 670.59375 390.925781 " fill-opacity="1" fill-rule="nonzero"/><path fill="#fbc4ab" d="M 631.890625 78 L 634.734375 86.878906 L 644.183594 86.878906 L 636.558594 92.34375 L 639.515625 101.335938 L 631.890625 95.757812 L 624.261719 101.335938 L 627.222656 92.34375 L 619.59375 86.878906 L 629.042969 86.878906 Z M 631.890625 78 " fill-opacity="1" fill-rule="nonzero"/><path fill="#fbc4ab" d="M 783.289062 45.558594 L 784.199219 48.515625 L 787.386719 48.515625 L 784.882812 50.335938 L 785.792969 53.410156 L 783.289062 51.476562 L 780.785156 53.410156 L 781.695312 50.335938 L 779.191406 48.515625 L 782.378906 48.515625 Z M 783.289062 45.558594 " fill-opacity="1" fill-rule="nonzero"/><path fill="#fbc4ab" d="M 791.257812 186.9375 L 793.191406 192.972656 L 799.453125 192.972656 L 794.328125 196.613281 L 796.265625 202.53125 L 791.257812 198.890625 L 786.246094 202.53125 L 788.183594 196.613281 L 783.058594 192.972656 L 789.320312 192.972656 Z M 791.257812 186.9375 " fill-opacity="1" fill-rule="nonzero"/><path fill="#fbc4ab" d="M 363.242188 2.984375 L 366.886719 14.140625 L 378.609375 14.140625 L 369.046875 21.082031 L 372.691406 32.238281 L 363.242188 25.292969 L 353.792969 32.238281 L 357.4375 21.082031 L 347.875 14.140625 L 359.601562 14.140625 Z M 363.242188 2.984375 " fill-opacity="1" fill-rule="nonzero"/><path fill="#fbc4ab" d="M 400.808594 144.707031 L 402.058594 148.347656 L 405.929688 148.347656 L 402.742188 150.738281 L 403.996094 154.382812 L 400.808594 152.105469 L 397.621094 154.382812 L 398.871094 150.738281 L 395.683594 148.347656 L 399.554688 148.347656 Z M 400.808594 144.707031 " fill-opacity="1" fill-rule="nonzero"/><path fill="#fbc4ab" d="M 165.171875 193.769531 L 166.878906 199.003906 L 172.34375 199.003906 L 167.90625 202.191406 L 169.613281 207.3125 L 165.171875 204.125 L 160.734375 207.3125 L 162.441406 202.191406 L 158 199.003906 L 163.464844 199.003906 Z M 165.171875 193.769531 " fill-opacity="1" fill-rule="nonzero"/><path fill="#fbc4ab" d="M 576.113281 130.476562 L 579.527344 140.835938 L 590.453125 140.835938 L 581.574219 147.324219 L 584.992188 157.683594 L 576.113281 151.195312 L 567.230469 157.683594 L 570.648438 147.324219 L 561.769531 140.835938 L 572.695312 140.835938 Z M 576.113281 130.476562 " fill-opacity="1" fill-rule="nonzero"/><path fill="#fbc4ab" d="M 301.773438 450.917969 L 303.253906 455.46875 L 307.921875 455.46875 L 304.164062 458.203125 L 305.53125 462.640625 L 301.773438 459.910156 L 298.015625 462.640625 L 299.382812 458.203125 L 295.625 455.46875 L 300.292969 455.46875 Z M 301.773438 450.917969 " fill-opacity="1" fill-rule="nonzero"/><g clip-path="url(#ee33e05e9f)"><path fill="#fbc4ab" d="M 4.667969 458.429688 L 8.539062 470.269531 L 21.058594 470.269531 L 10.929688 477.667969 L 14.800781 489.507812 L 4.667969 482.222656 L -5.464844 489.507812 L -1.59375 477.667969 L -11.722656 470.269531 L 0.796875 470.269531 Z M 4.667969 458.429688 " fill-opacity="1" fill-rule="nonzero"/></g><path fill="#fbc4ab" d="M 781.011719 252.050781 L 783.402344 259.449219 L 791.257812 259.449219 L 784.882812 264.003906 L 787.273438 271.402344 L 781.011719 266.847656 L 774.75 271.402344 L 777.140625 264.003906 L 770.765625 259.449219 L 778.621094 259.449219 Z M 781.011719 252.050781 " fill-opacity="1" fill-rule="nonzero"/><path fill="#fbc4ab" d="M 833.375 211.410156 L 837.246094 223.25 L 849.765625 223.25 L 839.636719 230.648438 L 843.507812 242.488281 L 833.375 235.203125 L 823.242188 242.488281 L 827.113281 230.648438 L 816.984375 223.25 L 829.503906 223.25 Z M 833.375 211.410156 " fill-opacity="1" fill-rule="nonzero"/><path fill="#fbc4ab" d="M 995.019531 425.988281 L 996.726562 431.222656 L 1002.1875 431.222656 L 997.75 434.410156 L 999.457031 439.535156 L 995.019531 436.347656 L 990.578125 439.535156 L 992.285156 434.410156 L 987.847656 431.222656 L 993.308594 431.222656 Z M 995.019531 425.988281 " fill-opacity="1" fill-rule="nonzero"/><path fill="#fbc4ab" d="M 954.039062 443.402344 L 957.226562 453.078125 L 967.355469 453.078125 L 959.160156 459 L 962.234375 468.675781 L 954.039062 462.757812 L 945.84375 468.675781 L 948.914062 459 L 940.71875 453.078125 L 950.851562 453.078125 Z M 954.039062 443.402344 " fill-opacity="1" fill-rule="nonzero"/><path fill="#fbc4ab" d="M 535.132812 344.9375 L 536.042969 347.898438 L 539.230469 347.898438 L 536.726562 349.71875 L 537.636719 352.792969 L 535.132812 350.859375 L 532.628906 352.792969 L 533.539062 349.71875 L 531.035156 347.898438 L 534.21875 347.898438 Z M 535.132812 344.9375 " fill-opacity="1" fill-rule="nonzero"/><path fill="#fbc4ab" d="M 644.410156 237.707031 L 648.507812 250.230469 L 661.828125 250.230469 L 651.015625 258.082031 L 655.113281 270.71875 L 644.410156 262.863281 L 633.710938 270.71875 L 637.808594 258.082031 L 626.996094 250.230469 L 640.3125 250.230469 Z M 644.410156 237.707031 " fill-opacity="1" fill-rule="nonzero"/><path fill="#fbc4ab" d="M 818.578125 314.089844 L 819.03125 315.570312 L 820.625 315.570312 L 819.375 316.480469 L 819.828125 317.960938 L 818.578125 317.050781 L 817.324219 317.960938 L 817.78125 316.480469 L 816.527344 315.570312 L 818.121094 315.570312 Z M 818.578125 314.089844 " fill-opacity="1" fill-rule="nonzero"/><path fill="#fbc4ab" d="M 228.917969 364.519531 L 230.855469 370.550781 L 237.117188 370.550781 L 231.992188 374.195312 L 233.929688 380.113281 L 228.917969 376.46875 L 223.910156 380.113281 L 225.847656 374.195312 L 220.722656 370.550781 L 226.984375 370.550781 Z M 228.917969 364.519531 " fill-opacity="1" fill-rule="nonzero"/><path fill="#fbc4ab" d="M 85.488281 158.367188 L 86.96875 162.917969 L 91.636719 162.917969 L 87.878906 165.652344 L 89.246094 170.089844 L 85.488281 167.359375 L 81.734375 170.089844 L 83.097656 165.652344 L 79.34375 162.917969 L 84.011719 162.917969 Z M 85.488281 158.367188 " fill-opacity="1" fill-rule="nonzero"/><path fill="#fbc4ab" d="M 884.601562 440.445312 L 885.054688 441.925781 L 886.648438 441.925781 L 885.398438 442.835938 L 885.851562 444.316406 L 884.601562 443.402344 L 883.347656 444.316406 L 883.804688 442.835938 L 882.550781 441.925781 L 884.144531 441.925781 Z M 884.601562 440.445312 " fill-opacity="1" fill-rule="nonzero"/><g clip-path="url(#2ed207ef54)"><path fill="#fbc4ab" d="M 998.433594 -1.683594 L 1001.621094 7.992188 L 1011.75 7.992188 L 1003.554688 13.910156 L 1006.628906 23.585938 L 998.433594 17.667969 L 990.238281 23.585938 L 993.308594 13.910156 L 985.113281 7.992188 L 995.246094 7.992188 Z M 998.433594 -1.683594 " fill-opacity="1" fill-rule="nonzero"/></g><path fill="#fbc4ab" d="M 203.875 248.636719 L 206.265625 256.035156 L 214.121094 256.035156 L 207.746094 260.589844 L 210.136719 267.988281 L 203.875 263.433594 L 197.617188 267.988281 L 200.007812 260.589844 L 193.632812 256.035156 L 201.484375 256.035156 Z M 203.875 248.636719 " fill-opacity="1" fill-rule="nonzero"/><path fill="#fbc4ab" d="M 866.386719 10.15625 L 866.613281 10.835938 L 867.410156 10.835938 L 866.726562 11.292969 L 867.070312 12.089844 L 866.386719 11.632812 L 865.703125 12.089844 L 866.042969 11.292969 L 865.363281 10.835938 L 866.160156 10.835938 Z M 866.386719 10.15625 " fill-opacity="1" fill-rule="nonzero"/><path fill="#fbc4ab" d="M 83.214844 276.523438 L 83.667969 278.003906 L 85.261719 278.003906 L 84.011719 278.914062 L 84.464844 280.394531 L 83.214844 279.484375 L 81.960938 280.394531 L 82.417969 278.914062 L 81.164062 278.003906 L 82.757812 278.003906 Z M 83.214844 276.523438 " fill-opacity="1" fill-rule="nonzero"/><path fill="#fbc4ab" d="M 1002.984375 172.480469 L 1005.832031 181.359375 L 1015.28125 181.359375 L 1007.652344 186.824219 L 1010.613281 195.816406 L 1002.984375 190.238281 L 995.359375 195.816406 L 998.320312 186.824219 L 990.691406 181.359375 L 1000.140625 181.359375 Z M 1002.984375 172.480469 " fill-opacity="1" fill-rule="nonzero"/><path fill="#fbc4ab" d="M 302.910156 111.125 L 306.328125 121.484375 L 317.253906 121.484375 L 308.375 127.972656 L 311.789062 138.332031 L 302.910156 131.84375 L 294.03125 138.332031 L 297.449219 127.972656 L 288.570312 121.484375 L 299.496094 121.484375 Z M 302.910156 111.125 " fill-opacity="1" fill-rule="nonzero"/><g clip-path="url(#d8994f4ada)"><path fill="#fbc4ab" d="M 288.113281 -10.675781 L 291.753906 0.480469 L 303.480469 0.480469 L 293.917969 7.421875 L 297.5625 18.578125 L 288.113281 11.632812 L 278.664062 18.578125 L 282.308594 7.421875 L 272.746094 0.480469 L 284.46875 0.480469 Z M 288.113281 -10.675781 " fill-opacity="1" fill-rule="nonzero"/></g><path fill="#fbc4ab" d="M 865.246094 287.109375 L 866.957031 292.347656 L 872.417969 292.347656 L 867.980469 295.535156 L 869.6875 300.65625 L 865.246094 297.46875 L 860.808594 300.65625 L 862.515625 295.535156 L 858.078125 292.347656 L 863.539062 292.347656 Z M 865.246094 287.109375 " fill-opacity="1" fill-rule="nonzero"/><path fill="#fbc4ab" d="M 238.027344 142.882812 L 240.871094 151.761719 L 250.320312 151.761719 L 242.695312 157.226562 L 245.652344 166.21875 L 238.027344 160.640625 L 230.398438 166.21875 L 233.359375 157.226562 L 225.730469 151.761719 L 235.179688 151.761719 Z M 238.027344 142.882812 " fill-opacity="1" fill-rule="nonzero"/><path fill="#fbc4ab" d="M 927.855469 20.628906 L 929.109375 24.269531 L 932.980469 24.269531 L 929.792969 26.660156 L 931.042969 30.304688 L 927.855469 28.027344 L 924.667969 30.304688 L 925.921875 26.660156 L 922.734375 24.269531 L 926.605469 24.269531 Z M 927.855469 20.628906 " fill-opacity="1" fill-rule="nonzero"/><path fill="#fbc4ab" d="M 59.308594 386.03125 L 60.558594 389.675781 L 64.429688 389.675781 L 61.242188 392.066406 L 62.496094 395.707031 L 59.308594 393.429688 L 56.121094 395.707031 L 57.371094 392.066406 L 54.183594 389.675781 L 58.054688 389.675781 Z M 59.308594 386.03125 " fill-opacity="1" fill-rule="nonzero"/><g clip-path="url(#c30e773a3a)"><path fill="#fbc4ab" d="M 4.667969 237.367188 L 7.855469 247.042969 L 17.988281 247.042969 L 9.789062 252.960938 L 12.863281 262.636719 L 4.667969 256.71875 L -3.527344 262.636719 L -0.453125 252.960938 L -8.652344 247.042969 L 1.480469 247.042969 Z M 4.667969 237.367188 " fill-opacity="1" fill-rule="nonzero"/></g><path fill="#fbc4ab" d="M 895.984375 227.804688 L 897.234375 231.445312 L 901.105469 231.445312 L 897.917969 233.835938 L 899.171875 237.480469 L 895.984375 235.203125 L 892.796875 237.480469 L 894.046875 233.835938 L 890.859375 231.445312 L 894.730469 231.445312 Z M 895.984375 227.804688 " fill-opacity="1" fill-rule="nonzero"/><path fill="#fbc4ab" d="M 280.144531 152.332031 L 284.242188 164.855469 L 297.5625 164.855469 L 286.746094 172.707031 L 290.84375 185.34375 L 280.144531 177.488281 L 269.445312 185.34375 L 273.542969 172.707031 L 262.726562 164.855469 L 276.046875 164.855469 Z M 280.144531 152.332031 " fill-opacity="1" fill-rule="nonzero"/><path fill="#fbc4ab" d="M 407.636719 205.265625 L 409.800781 211.980469 L 416.859375 211.980469 L 411.167969 216.078125 L 413.328125 222.796875 L 407.636719 218.582031 L 401.945312 222.796875 L 404.109375 216.078125 L 398.417969 211.980469 L 405.476562 211.980469 Z M 407.636719 205.265625 " fill-opacity="1" fill-rule="nonzero"/><path fill="#fbc4ab" d="M 505.535156 464.578125 L 506.785156 468.21875 L 510.65625 468.21875 L 507.46875 470.609375 L 508.722656 474.253906 L 505.535156 471.976562 L 502.347656 474.253906 L 503.597656 470.609375 L 500.414062 468.21875 L 504.28125 468.21875 Z M 505.535156 464.578125 " fill-opacity="1" fill-rule="nonzero"/><path fill="#fbc4ab" d="M 692.222656 136.738281 L 693.699219 141.289062 L 698.367188 141.289062 L 694.613281 144.023438 L 695.976562 148.460938 L 692.222656 145.730469 L 688.464844 148.460938 L 689.832031 144.023438 L 686.074219 141.289062 L 690.742188 141.289062 Z M 692.222656 136.738281 " fill-opacity="1" fill-rule="nonzero"/><path fill="#fbc4ab" d="M 861.832031 143.453125 L 862.742188 146.414062 L 865.929688 146.414062 L 863.425781 148.234375 L 864.335938 151.308594 L 861.832031 149.371094 L 859.328125 151.308594 L 860.238281 148.234375 L 857.734375 146.414062 L 860.921875 146.414062 Z M 861.832031 143.453125 " fill-opacity="1" fill-rule="nonzero"/><path fill="#fbc4ab" d="M 804.917969 370.550781 L 807.761719 379.429688 L 817.210938 379.429688 L 809.582031 384.894531 L 812.542969 393.886719 L 804.917969 388.308594 L 797.289062 393.886719 L 800.25 384.894531 L 792.621094 379.429688 L 802.070312 379.429688 Z M 804.917969 370.550781 " fill-opacity="1" fill-rule="nonzero"/></g></g></g></svg>